<svg xmlns="http://www.w3.org/2000/svg" xmlns:xlink="http://www.w3.org/1999/xlink" width="218px" height="186px" viewBox="0 0 218 186"><title>1-click-demo</title><g id="Page-1" stroke="none" stroke-width="1" fill="none" fill-rule="evenodd"><g id="Landingpage" transform="translate(-791.000000, -822.000000)"><g id="Stats" transform="translate(420.000000, 822.000000)"><g id="1-click-demo" transform="translate(371.000000, 0.000000)"><path d="M108.319392,0.45026552 C109.359356,-0.150088507 110.640644,-0.150088507 111.680608,0.45026552 L111.680608,0.45026552 L189.319392,45.2698517 C190.359356,45.8702057 191,46.9797057 191,48.1804138 L191,48.1804138 L191,137.819586 C191,139.020294 190.359356,140.129794 189.319392,140.730148 L189.319392,140.730148 L111.680608,185.549734 C110.640644,186.150089 109.359356,186.150089 108.319392,185.549734 L108.319392,185.549734 L30.6806082,140.730148 C29.6406442,140.129794 29,139.020294 29,137.819586 L29,137.819586 L29,48.1804138 C29,46.9797057 29.6406442,45.8702057 30.6806082,45.2698517 L30.6806082,45.2698517 Z" id="Path" fill="#FFFFFF" fill-rule="nonzero"></path><path d="M110.197186,25.2941902 L51.9818479,58.9048316 L51.9818479,126.126114 L110.197186,159.736755 L168.412525,126.126114 L168.412525,58.9048316 L110.197186,25.2941902 Z M111.634312,22.8050154 L169.849651,56.4156567 C170.738947,56.9290923 171.286776,57.8779604 171.286776,58.9048316 L171.286776,126.126114 C171.286776,127.152985 170.738947,128.101853 169.849651,128.615289 L111.634312,162.22593 C110.745016,162.739366 109.649357,162.739366 108.760061,162.22593 L50.5447222,128.615289 C49.6554257,128.101853 49.1075964,127.152985 49.1075964,126.126114 L49.1075964,58.9048316 C49.1075964,57.8779604 49.6554257,56.9290923 50.5447222,56.4156567 L108.760061,22.8050154 C109.649357,22.2915799 110.745016,22.2915799 111.634312,22.8050154 Z" id="Polygon-Copy" fill="#000000"></path><g id="Page-1" transform="translate(59.485619, 60.311789)" fill="#000000"><path d="M16.1669746,4.09666241 C15.5312562,5.36222173 14.3954578,6.02647297 13.1432023,6.50859081 C12.9993436,6.58626535 12.8541149,6.70679481 12.7952013,6.82732427 C12.3403339,7.8370933 11.8703956,8.89909176 11.4210085,9.90350392 C11.2538584,10.3052688 11.1099997,10.6668572 10.9442197,11.1275475 C11.479922,10.4686532 11.9498603,9.90350392 12.4485704,9.35844292 C13.3089823,8.37545822 14.315993,7.63219322 15.6970362,7.42863235 C17.1150717,7.18757343 18.4906346,7.30810289 19.8867488,7.66969127 C19.9086701,7.71656384 19.9456623,7.71656384 20.0100562,7.75272268 C19.6784962,8.25492876 19.3729678,8.7785623 19.0194865,9.23925268 C18.3029333,10.1432236 17.4411514,10.8864886 16.290282,11.2895927 C14.6420726,11.7917988 12.9623514,11.9123282 11.2757797,11.6297536 C11.1099997,11.5922556 10.966141,11.5721673 10.798991,11.5306516 C9.95913034,13.9211526 9.3014907,16.2701378 8.86717452,18.7021545 C9.17818327,18.2414641 9.46179036,17.7191698 9.75087779,17.2584794 C10.4948326,16.0705946 11.3771658,15.1237687 12.7527287,14.6630784 C13.8227632,14.3028292 14.8886875,14.1608723 16.0011946,14.1608723 C16.3711169,14.1608723 16.7191178,14.2037272 17.1520639,14.2037272 C16.9273704,14.6630784 16.7835117,15.0876099 16.6177317,15.490714 C16.0820294,16.5942281 15.4230197,17.5571246 14.3584655,18.1999484 C13.0842887,19.0208879 11.645702,19.4025645 10.1468317,19.5659489 C9.67004292,19.6074646 9.15626195,19.6436235 8.6644023,19.6851392 C8.23008612,22.118495 7.98484133,24.5880097 7.94647902,27.0990401 C8.0108729,27.0200264 8.02731389,26.8994969 8.06978645,26.7789675 C8.23008612,26.3142594 8.41778743,25.8321416 8.62192974,25.3299355 C9.17818327,23.8862604 10.1413513,22.7773894 11.6237807,22.118495 C12.6294213,21.6939635 13.7008259,21.4167457 14.7873014,21.2547006 C14.9736326,21.2547006 15.1558536,21.2131849 15.3641062,21.177026 L15.3641062,21.4167457 C15.3010824,21.6363772 15.26272,21.9135949 15.1983262,22.1961696 C14.8722465,23.6452015 14.2735204,25.0112021 12.9993436,25.9526711 C11.645702,27.0200264 10.1043591,27.6789208 8.41778743,28.045866 C8.23008612,28.0820248 8.06978645,28.0820248 7.8615339,28.1235405 C7.82454167,30.6760866 8.02731389,33.1871171 8.47670098,35.6981475 C8.6644023,34.8772079 8.80278064,34.0924272 8.99048195,33.3076465 C9.25764806,32.1987755 9.79335035,31.2157908 10.6770536,30.4725258 C11.7840804,29.5672156 13.0582572,28.987335 14.4393004,28.5052172 C14.5831591,28.5052172 14.7283878,28.4275426 14.9736326,28.3846877 C14.9311601,29.1078645 14.9092387,29.7292608 14.829774,30.3519963 C14.6845452,31.4983654 14.3584655,32.5442933 13.5980697,33.4067485 C12.325263,34.8517628 10.7400774,35.9606338 8.87265485,36.5833694 C8.80826097,36.5833694 8.74934742,36.6248851 8.66988263,36.6610439 C9.13571071,38.9886017 9.77142903,41.2599124 10.6386913,43.4508701 C10.682534,43.0491053 10.6386913,42.6674286 10.6606126,42.2643246 C10.6770536,40.9398397 10.9072275,39.6957079 11.7470881,38.6283525 C12.4485704,37.7645581 13.288431,37.064148 14.1926855,36.5204262 C14.6845452,36.2003535 15.1983262,35.9392064 15.7340285,35.6566318 C15.7984223,35.8762632 15.8354146,36.0811633 15.8778871,36.2378516 C16.1669746,37.8850875 16.1669746,39.4908078 15.3010824,40.9773378 C14.5831591,42.2067383 13.6145107,43.2312387 12.4485704,44.0950331 C12.0361756,44.4137666 11.5867885,44.676253 11.131921,44.9574884 C11.9717817,47.0667539 12.9185087,49.1170939 14.0693781,51.0844026 C14.0912994,50.9638731 14.0693781,50.8848594 14.0693781,50.8018279 C14.0049842,50.2420356 13.9255194,49.6554589 13.8816768,49.1170939 C13.7802907,48.0912543 13.9899133,47.1082696 14.481773,46.2029595 C15.0763888,45.1356041 15.8778871,44.2356508 16.8259843,43.4508701 C17.1739853,43.1696347 17.5274666,42.9071484 17.8960188,42.5884149 C18.3878784,43.7762997 18.6988872,44.8999021 18.7208085,46.08243 C18.7208085,46.7466812 18.6769659,47.4069148 18.4317211,48.0497386 C17.7247585,49.7759883 16.6602043,51.304034 15.1777749,52.5695934 C15.0174753,52.6686954 15.0325462,52.753066 15.1188614,52.9151111 C16.0820294,54.4846725 17.1315127,55.9698633 18.2659411,57.4349659 C18.2659411,57.4349659 18.0782398,57.8380699 16.6807555,56.9742755 C16.3711169,56.48814 16.0450372,56.0488771 15.7340285,55.546671 C15.0763888,54.5569902 14.4598517,53.5740055 13.8666059,52.5695934 C13.7213771,52.3285344 13.5980697,52.2508599 13.3089823,52.3285344 C11.5223946,52.7115503 9.69196424,52.7115503 7.90400646,52.2508599 C6.60927841,51.9267696 5.60226771,51.1473457 4.74185584,50.2005199 C4.36645321,49.7759883 4.04037356,49.2577116 3.69237258,48.8345193 C3.64990002,48.7555056 3.64990002,48.7139899 3.60605738,48.6363153 C3.64990002,48.5934604 3.68689225,48.5573016 3.72936481,48.5573016 C5.16932161,48.0966112 6.6257194,47.8568915 8.15062133,47.9760817 C9.67004292,48.0550955 10.8853062,48.7608624 11.9347894,49.7867021 C12.1800342,50.0224041 12.3841765,50.2420356 12.673264,50.4402396 C12.6513426,50.362565 12.6088701,50.2781944 12.5705078,50.2005199 C11.6237807,48.3738289 10.7839201,46.4440184 10.0824378,44.4767098 C10.0180439,44.2785058 9.91665778,44.2356508 9.71251548,44.2356508 C7.92592778,44.3561803 6.19688355,44.0535174 4.53223321,43.3517681 C3.25942648,42.7866189 2.37572321,41.8451499 1.69616225,40.7202083 C1.37008259,40.1979139 1.14538905,39.6113372 0.812458976,38.9886017 C1.40707482,38.9886017 1.94277711,38.9109272 2.47710932,38.9109272 C3.52659259,38.8694115 4.55415453,38.9524429 5.55979515,39.2296606 C6.93535807,39.6327647 7.90400646,40.4537042 8.72331585,41.542487 C8.91101716,41.7621185 9.07679716,42.0018382 9.24257715,42.2428971 C8.74386709,40.0773845 8.21501521,37.9266032 7.70123424,35.7771612 C6.87644452,35.5789572 6.01466257,35.4155728 5.17480194,35.1544257 C3.90062513,34.7312334 2.7072832,34.1299253 1.76603646,33.1456014 C0.941246739,32.2831461 0.101386112,30.393512 -6.21724894e-14,29.2270547 L0.0424725603,29.2270547 C1.83043034,29.2699096 3.53755325,29.5886431 5.07889616,30.5140415 C5.99411133,31.0591025 6.58735709,31.9577166 7.08058682,32.9045424 C7.20252417,33.1040856 7.30528037,33.3076465 7.44913904,33.527278 C7.24636682,31.3778359 7.16005161,29.2484822 7.32583161,27.0990401 C6.21880487,26.7789675 5.21179417,26.3557751 4.2650671,25.7745553 C2.93197674,24.9121001 1.76055613,23.8862604 1.2673264,22.316699 C1.00016029,21.4957595 0.834380297,20.631965 0.812458976,19.7695098 C0.791907737,19.690496 0.812458976,19.6074646 0.812458976,19.4079214 C1.61532737,19.690496 2.33325065,19.8686118 3.07172517,20.1096707 C4.05681455,20.5127748 4.9816203,21.0149809 5.72009481,21.7984224 C6.38458487,22.4787442 6.73258585,23.3010229 7.02167327,24.1474076 C7.14361062,24.5505117 7.24636682,24.9321883 7.43269805,25.3352924 C7.45461937,25.2147629 7.45461937,25.1732472 7.47654069,25.0527178 C7.61491903,22.9809503 7.90400646,20.9306102 8.33832264,18.9003585 C8.37531487,18.7021545 8.35339355,18.5401093 8.12870001,18.4610955 C6.46404966,17.6763148 5.08848674,16.5527124 4.0609248,15.0032393 C3.33889127,13.9626683 3.17859161,12.7747835 3.20051293,11.5306516 C3.21558384,11.0485338 3.27997772,10.6253415 3.32245028,10.0655491 C3.95953868,10.3842825 4.53223321,10.6253415 5.0679355,10.9280043 C6.19688355,11.5507399 7.20252417,12.3355206 7.8615339,13.4818896 C8.37531487,14.3443449 8.4986223,15.3273296 8.60000842,16.3116535 C8.62192974,16.630387 8.62192974,16.9343891 8.70139453,17.2169637 C8.72331585,17.1379499 8.74386709,17.0549185 8.7822294,16.9759048 C9.29601037,14.8880667 9.95365001,12.8162992 10.7729594,10.8074749 C10.8524242,10.6092709 10.8524242,10.4887414 10.649652,10.3842825 C9.24257715,9.40129784 8.15062133,8.15582676 7.39022549,6.60769281 C6.77505841,5.38364919 6.77505841,4.13817811 7.04222451,2.87261878 C7.12305938,2.41192841 7.26691806,1.96730862 7.39022549,1.50661824 L7.41214681,1.48653 C8.33832264,2.03025178 9.15626195,2.65298732 9.87966555,3.43776803 C10.9866923,4.58279789 11.5867885,5.90594351 11.4415597,7.55451868 C11.4210085,8.15582676 11.3566146,8.7785623 11.297701,9.47897238 C11.3620949,9.40129784 11.3771658,9.35844292 11.3990871,9.28076838 C11.8484742,8.37545822 12.2814203,7.47014805 12.7376578,6.52867905 C12.7801304,6.40814959 12.8006816,6.28762014 12.7801304,6.16842989 C12.7376578,5.34615114 12.7801304,4.51985473 12.9829026,3.69891519 C13.1651236,3.09225024 13.4117385,2.44808724 13.8816768,1.98873608 C14.4393004,1.40751624 15.113381,0.962896459 15.792942,0.581219838 C16.1628643,0.340160919 16.5314165,0.178115757 16.9218901,-7.81597009e-14 C16.9862839,-7.81597009e-14 17.0232762,0.0415157027 17.0876701,0.0415157027 C17.0725992,0.340160919 17.0082053,0.622735541 17.0082053,0.926737622 C16.9492917,2.03025178 16.6807555,3.13376595 16.1669746,4.09666241 L16.1669746,4.09666241 Z" id="Fill-1"></path><path d="M86.3845636,4.09666241 C87.0202819,5.36222173 88.1560804,6.02647297 89.4083359,6.50859081 C89.5521945,6.58626535 89.6974233,6.70679481 89.7563368,6.82732427 C90.2262752,7.85182468 90.6811426,8.91382313 91.1305297,9.9182353 C91.2976798,10.3052688 91.4196171,10.6668572 91.6073184,11.1275475 C91.0716161,10.4686532 90.6016778,9.90350392 90.1248891,9.35844292 C89.2631071,8.37545822 88.2355452,7.63219322 86.8599822,7.43398922 C85.4638681,7.21435776 84.0609035,7.33488722 82.6853406,7.67504813 C82.642868,7.71656384 82.626427,7.71656384 82.5414819,7.75272268 C82.8949632,8.25492876 83.1991216,8.7785623 83.5320516,9.23925268 C84.2486048,10.1432236 85.1103868,10.8864886 86.2612562,11.2895927 C87.9039852,11.7917988 89.5891868,11.9123282 91.2757584,11.6498419 C91.4415384,11.5922556 91.5853971,11.5721673 91.7525472,11.5306516 C92.612959,13.9211526 93.2500474,16.2701378 93.6994345,18.7021545 C93.3733549,18.2414641 93.0842674,17.7191698 92.79518,17.2584794 C92.0786268,16.0705946 91.1743723,15.1237687 89.7988094,14.6630784 C88.7493261,14.3028292 87.6573703,14.140784 86.5708948,14.140784 C86.2228938,14.140784 85.8543416,14.1822997 85.4200254,14.1822997 C85.6241677,14.6630784 85.7680264,15.0876099 85.9338064,15.490714 C86.4695087,16.5942281 87.1285184,17.5571246 88.1930726,18.1999484 C89.4672494,19.0208879 90.9058361,19.423992 92.4047065,19.5659489 C92.8814952,19.6074646 93.3952762,19.6436235 93.8871358,19.6851392 C94.321452,22.118495 94.5666968,24.5880097 94.6256104,27.0990401 C94.5461456,27.0200264 94.5242243,26.8994969 94.4817517,26.7789675 C94.321452,26.3142594 94.1337507,25.8321416 93.9460494,25.3299355 C93.3733549,23.8862604 92.4047065,22.7827463 90.9496788,22.118495 C89.9426681,21.6738752 88.8726336,21.4113889 87.7806777,21.2547006 C87.5929764,21.2547006 87.4121255,21.2131849 87.2025029,21.177026 L87.2025029,21.4167457 C87.2504558,21.6363772 87.2888181,21.9135949 87.353212,22.1961696 C87.701213,23.6411839 88.2780177,25.0272726 89.5521945,25.9740985 C90.8907652,27.0414538 92.447179,27.7003482 94.154302,28.0605974 C94.321452,28.0820248 94.4817517,28.0820248 94.6900042,28.1235405 C94.7324768,30.6760866 94.5242243,33.1871171 94.0748372,35.6981475 C93.8871358,34.8772079 93.7487575,34.0924272 93.5816074,33.3076465 C93.308961,32.1987755 92.7581878,31.2157908 91.8744845,30.4725258 C90.7619775,29.5672156 89.4672494,28.987335 88.1122377,28.5052172 C87.9683791,28.5052172 87.8231503,28.4275426 87.5984568,28.3846877 C87.6203781,29.1078645 87.6422994,29.7292608 87.7217642,30.3519963 C87.8669929,31.4983654 88.1930726,32.5442933 88.9534684,33.4067485 C90.2481965,34.8517628 91.8114607,35.9606338 93.6788833,36.5833694 C93.7432772,36.5833694 93.8021907,36.6248851 93.8816555,36.6610439 C93.4158274,38.9886017 92.7801091,41.2599124 91.9128468,43.4508701 C91.8690042,43.0491053 91.9128468,42.6674286 91.8909255,42.2643246 C91.8744845,40.9398397 91.6443106,39.6957079 90.80445,38.6283525 C90.1029677,37.7645581 89.2850284,37.0587911 88.3369313,36.5204262 C87.8450716,36.2003535 87.353212,35.9177789 86.7955884,35.6566318 C86.7366748,35.8762632 86.7161236,36.0811633 86.673651,36.2378516 C86.3845636,37.8850875 86.3845636,39.4908078 87.2504558,40.9826946 C87.9683791,42.2067383 88.9534684,43.2312387 90.1029677,44.0950331 C90.5372839,44.4137666 90.9647497,44.676253 91.4196171,44.9574884 C90.5797565,47.0667539 89.6111081,49.1170939 88.4602387,51.0629751 C88.4602387,50.9424456 88.4602387,50.8647711 88.48216,50.7804005 C88.5465539,50.2366787 88.6260187,49.6353706 88.6849323,49.0903096 C88.7657671,48.0658092 88.5616248,47.0814853 88.0697652,46.1775144 C87.4751493,45.1356041 86.673651,44.2356508 85.7255539,43.4508701 C85.3775529,43.189723 85.0295519,42.9071484 84.6609997,42.5884149 C84.1472187,43.7709428 83.8581313,44.9159727 83.8156587,46.08243 C83.8156587,46.7466812 83.8581313,47.4069148 84.1252974,48.0497386 C84.8267797,49.7759883 85.8913339,51.304034 87.3737632,52.5695934 C87.5395432,52.6901228 87.518992,52.7691366 87.4381571,52.9311817 C86.4695087,54.4793157 85.4200254,55.9645065 84.2910774,57.4349659 C84.2910774,57.4349659 84.4952197,57.8380699 85.8762629,56.9742755 C86.2023426,56.5135851 86.5339026,56.0689653 86.839431,55.5667592 C87.4751493,54.5837745 88.1122377,53.6007898 88.7068536,52.5963777 C88.830161,52.3285344 88.9534684,52.2508599 89.2425559,52.3285344 C91.0510649,52.7316385 92.8814952,52.7316385 94.6680829,52.2508599 C95.9422597,51.9267696 96.9698217,51.1473457 97.8096823,50.2005199 C98.1850849,49.7759883 98.5111646,49.2577116 98.8591656,48.8345193 C98.8810869,48.7555056 98.9235594,48.7139899 98.9605517,48.6363153 C98.9016381,48.5934604 98.8591656,48.5519447 98.8372442,48.5519447 C97.4041379,48.0912543 95.9217085,47.8515346 94.4228381,47.9707249 C92.9239678,48.0497386 91.7087045,48.7555056 90.63867,49.7813452 C90.3920552,50.0224041 90.1673616,50.2420356 89.8782742,50.4402396 C89.9001955,50.362565 89.9426681,50.2781944 89.9810304,50.2005199 C90.9277575,48.3537407 91.7676181,46.4225909 92.4855414,44.4767098 C92.5499352,44.2785058 92.6294,44.2356508 92.8335423,44.2356508 C94.62013,44.3561803 96.3656153,44.0374468 98.0138246,43.3316799 C99.2880014,42.7866189 100.170335,41.8451499 100.849896,40.70012 C101.181456,40.1979139 101.42807,39.6113372 101.739079,38.9886017 C101.144463,38.9886017 100.608761,38.9109272 100.074429,38.9109272 C99.0468669,38.8694115 98.0193049,38.9524429 97.0122942,39.21359 C95.6367313,39.6166941 94.6680829,40.4376336 93.8501436,41.5264164 C93.640521,41.7621185 93.474741,42.0018382 93.308961,42.2428971 C93.822742,40.0934551 94.3365229,37.9225856 94.8503039,35.7771612 C95.6750936,35.5789572 96.5574268,35.4155728 97.3767362,35.1544257 C98.650913,34.7312334 99.8442549,34.1299253 100.785502,33.1456014 C101.610291,32.2831461 102.450152,30.393512 102.551538,29.2270547 L102.509066,29.2270547 C100.75399,29.2484822 99.0468669,29.5672156 97.505524,30.5140415 C96.5574268,31.0591025 95.9641811,31.9577166 95.4709513,32.9045424 C95.349014,33.1040856 95.2462578,33.3076465 95.1023991,33.527278 C95.3051713,31.3778359 95.3914865,29.2484822 95.2257065,27.0990401 C96.3327333,26.7789675 97.3452243,26.3557751 98.2645497,25.7745553 C99.6195614,24.9121001 100.790982,23.8862604 101.284212,22.316699 C101.551378,21.4957595 101.717158,20.631965 101.739079,19.7695098 C101.75963,19.690496 101.739079,19.6074646 101.739079,19.4079214 C100.956762,19.6851392 100.197736,19.8900392 99.4743326,20.1096707 C98.4906133,20.5127748 97.5849888,21.0149809 96.825963,21.7944047 C96.1669533,22.4787442 95.8189523,23.3010229 95.5298649,24.1474076 C95.4079275,24.5451548 95.3051713,24.9482589 95.1393913,25.3299355 C95.1393913,25.2094061 95.1188401,25.1678904 95.1188401,25.0473609 C94.9366191,22.9809503 94.6475317,20.9306102 94.2132155,18.9003585 C94.1762233,18.7021545 94.1981446,18.5401093 94.4433894,18.4610955 C96.1080397,17.6763148 97.4630514,16.531285 98.4906133,15.0085961 C99.2071665,13.9412408 99.3729465,12.7801404 99.3510252,11.514581 C99.3510252,11.0538906 99.2880014,10.6092709 99.2290879,10.0709059 C98.6125507,10.3842825 98.0193049,10.6253415 97.505524,10.9280043 C96.3546546,11.5721673 95.349014,12.356948 94.6900042,13.4818896 C94.1762233,14.3443449 94.0529158,15.3273296 93.9679707,16.3116535 C93.9296084,16.6143164 93.9296084,16.9343891 93.8446633,17.2169637 C93.822742,17.1325931 93.8076711,17.0549185 93.7857497,16.9759048 C93.2500474,14.9041373 92.612959,12.8162992 91.7895394,10.8074749 C91.7087045,10.6092709 91.7087045,10.4887414 91.8909255,10.3842825 C93.308961,9.40129784 94.3803656,8.15582676 95.1613127,6.60769281 C95.7764797,5.38364919 95.7764797,4.13817811 95.5093136,2.87261878 C95.4284788,2.41192841 95.3051713,1.98873608 95.1818639,1.5280457 L95.1393913,1.48653 C94.2351368,2.03025178 93.3952762,2.65298732 92.6718726,3.43776803 C91.5648459,4.57744103 90.97023,5.90594351 91.0935374,7.55451868 C91.13601,8.1343993 91.1949236,8.7785623 91.2387662,9.48432924 C91.1949236,9.4066547 91.1743723,9.36379978 91.1579313,9.28612524 C90.7030639,8.37545822 90.2481965,7.47014805 89.7988094,6.55010651 C89.7563368,6.42957705 89.7563368,6.30904759 89.7563368,6.18851814 C89.7988094,5.36757859 89.7768881,4.54128219 89.5521945,3.71900343 C89.3864145,3.09225024 89.1397997,2.44808724 88.6698613,1.98873608 C88.1122377,1.40751624 87.4545981,0.962896459 86.7585961,0.581219838 C86.3886738,0.340160919 86.0201216,0.178115757 85.6296481,-7.81597009e-14 C85.5652542,-7.81597009e-14 85.528262,0.0415157027 85.4638681,0.0415157027 C85.478939,0.340160919 85.5433329,0.622735541 85.5652542,0.926737622 C85.6022464,2.03025178 85.8707826,3.13376595 86.3845636,4.09666241 L86.3845636,4.09666241 Z" id="Fill-2"></path></g><polygon id="Rectangle-75" fill="#FFFFFF" points="0.888289646 108.208667 15.354721 129.602501 0.888289646 150.364355 217.88476 150.364355 203.418329 129.602501 217.88476 108.208667"></polygon><path d="M32.795791,118.676647 L36.2841742,118.676647 C37.0921623,118.676647 37.8088019,118.827703 38.4341144,119.12982 C39.0594269,119.431938 39.5442124,119.860516 39.8884856,120.415569 C40.2327588,120.970622 40.4048928,121.620515 40.4048928,122.365269 C40.4048928,123.110024 40.2327588,123.759917 39.8884856,124.31497 C39.5442124,124.870023 39.0594269,125.298601 38.4341144,125.600719 C37.8088019,125.902836 37.0921623,126.053892 36.2841742,126.053892 L32.795791,126.053892 L32.795791,118.676647 Z M36.1998629,124.388743 C36.8322014,124.388743 37.339821,124.209583 37.7227371,123.851257 C38.1056532,123.492932 38.2971084,122.997608 38.2971084,122.365269 C38.2971084,121.732931 38.1056532,121.237607 37.7227371,120.879281 C37.339821,120.520956 36.8322014,120.341796 36.1998629,120.341796 L34.8824976,120.341796 L34.8824976,124.388743 L36.1998629,124.388743 Z M47.423815,124.441437 L47.423815,126.053892 L41.5009407,126.053892 L41.5009407,118.676647 L47.286809,118.676647 L47.286809,120.289102 L43.5665695,120.289102 L43.5665695,121.532695 L46.8441742,121.532695 L46.8441742,123.092455 L43.5665695,123.092455 L43.5665695,124.441437 L47.423815,124.441437 Z M55.2436952,126.053892 L55.2226174,122.143952 L53.3256114,125.326707 L52.3981862,125.326707 L50.5117192,122.249341 L50.5117192,126.053892 L48.5830964,126.053892 L48.5830964,118.676647 L50.3009407,118.676647 L52.8935156,122.934371 L55.4228569,118.676647 L57.1407012,118.676647 L57.161779,126.053892 L55.2436952,126.053892 Z M62.3574677,126.201437 C61.5775835,126.201437 60.8767522,126.036329 60.2549527,125.706108 C59.6331532,125.375887 59.1448547,124.919205 58.7900425,124.336048 C58.4352304,123.752891 58.2578269,123.095972 58.2578269,122.365269 C58.2578269,121.634567 58.4352304,120.977648 58.7900425,120.394491 C59.1448547,119.811334 59.6331532,119.354652 60.2549527,119.024431 C60.8767522,118.69421 61.5775835,118.529102 62.3574677,118.529102 C63.1373518,118.529102 63.8381831,118.69421 64.4599826,119.024431 C65.0817821,119.354652 65.5700807,119.811334 65.9248928,120.394491 C66.279705,120.977648 66.4571084,121.634567 66.4571084,122.365269 C66.4571084,123.095972 66.279705,123.752891 65.9248928,124.336048 C65.5700807,124.919205 65.0817821,125.375887 64.4599826,125.706108 C63.8381831,126.036329 63.1373518,126.201437 62.3574677,126.201437 Z M62.3574677,124.473054 C62.7298448,124.473054 63.0670869,124.38523 63.3692042,124.209581 C63.6713215,124.033931 63.9102013,123.786269 64.0858509,123.466587 C64.2615005,123.146905 64.3493239,122.779802 64.3493239,122.365269 C64.3493239,121.950736 64.2615005,121.583634 64.0858509,121.263952 C63.9102013,120.94427 63.6713215,120.696608 63.3692042,120.520958 C63.0670869,120.345309 62.7298448,120.257485 62.3574677,120.257485 C61.9850905,120.257485 61.6478484,120.345309 61.3457311,120.520958 C61.0436139,120.696608 60.804734,120.94427 60.6290844,121.263952 C60.4534348,121.583634 60.3656114,121.950736 60.3656114,122.365269 C60.3656114,122.779802 60.4534348,123.146905 60.6290844,123.466587 C60.804734,123.786269 61.0436139,124.033931 61.3457311,124.209581 C61.6478484,124.38523 61.9850905,124.473054 62.3574677,124.473054 Z M74.2980665,126.201437 C73.5252083,126.201437 72.8314029,126.038085 72.2166293,125.711377 C71.6018558,125.384669 71.1188267,124.929743 70.7675275,124.346587 C70.4162284,123.76343 70.2405814,123.102998 70.2405814,122.365269 C70.2405814,121.627541 70.4162284,120.967109 70.7675275,120.383952 C71.1188267,119.800795 71.6018558,119.34587 72.2166293,119.019162 C72.8314029,118.692453 73.5252083,118.529102 74.2980665,118.529102 C74.9725609,118.529102 75.5802993,118.648542 76.1213,118.887425 C76.6623007,119.126309 77.1119569,119.470577 77.470282,119.92024 L76.1423778,121.121677 C75.664611,120.545546 75.0849761,120.257485 74.4034557,120.257485 C74.0029746,120.257485 73.6464113,120.345309 73.3337551,120.520958 C73.0210988,120.696608 72.778706,120.94427 72.6065695,121.263952 C72.4344329,121.583634 72.3483659,121.950736 72.3483659,122.365269 C72.3483659,122.779802 72.4344329,123.146905 72.6065695,123.466587 C72.778706,123.786269 73.0210988,124.033931 73.3337551,124.209581 C73.6464113,124.38523 74.0029746,124.473054 74.4034557,124.473054 C75.0849761,124.473054 75.664611,124.184993 76.1423778,123.608862 L77.470282,124.810299 C77.1119569,125.259962 76.6623007,125.60423 76.1213,125.843114 C75.5802993,126.081997 74.9725609,126.201437 74.2980665,126.201437 Z M82.1179467,126.201437 C81.3380626,126.201437 80.6372312,126.036329 80.0154317,125.706108 C79.3936322,125.375887 78.9053337,124.919205 78.5505216,124.336048 C78.1957094,123.752891 78.018306,123.095972 78.018306,122.365269 C78.018306,121.634567 78.1957094,120.977648 78.5505216,120.394491 C78.9053337,119.811334 79.3936322,119.354652 80.0154317,119.024431 C80.6372312,118.69421 81.3380626,118.529102 82.1179467,118.529102 C82.8978308,118.529102 83.5986622,118.69421 84.2204617,119.024431 C84.8422612,119.354652 85.3305597,119.811334 85.6853719,120.394491 C86.040184,120.977648 86.2175874,121.634567 86.2175874,122.365269 C86.2175874,123.095972 86.040184,123.752891 85.6853719,124.336048 C85.3305597,124.919205 84.8422612,125.375887 84.2204617,125.706108 C83.5986622,126.036329 82.8978308,126.201437 82.1179467,126.201437 Z M82.1179467,124.473054 C82.4903238,124.473054 82.8275659,124.38523 83.1296832,124.209581 C83.4318005,124.033931 83.6706804,123.786269 83.8463299,123.466587 C84.0219795,123.146905 84.109803,122.779802 84.109803,122.365269 C84.109803,121.950736 84.0219795,121.583634 83.8463299,121.263952 C83.6706804,120.94427 83.4318005,120.696608 83.1296832,120.520958 C82.8275659,120.345309 82.4903238,120.257485 82.1179467,120.257485 C81.7455696,120.257485 81.4083275,120.345309 81.1062102,120.520958 C80.8040929,120.696608 80.565213,120.94427 80.3895635,121.263952 C80.2139139,121.583634 80.1260904,121.950736 80.1260904,122.365269 C80.1260904,122.779802 80.2139139,123.146905 80.3895635,123.466587 C80.565213,123.786269 80.8040929,124.033931 81.1062102,124.209581 C81.4083275,124.38523 81.7455696,124.473054 82.1179467,124.473054 Z M94.3325575,118.676647 L94.3325575,126.053892 L92.6147132,126.053892 L89.3581862,122.122874 L89.3581862,126.053892 L87.3136353,126.053892 L87.3136353,118.676647 L89.0314796,118.676647 L92.2880066,122.607665 L92.2880066,118.676647 L94.3325575,118.676647 Z M97.378306,120.331257 L95.1124377,120.331257 L95.1124377,118.676647 L101.720342,118.676647 L101.720342,120.331257 L99.4650126,120.331257 L99.4650126,126.053892 L97.378306,126.053892 L97.378306,120.331257 Z M108.423096,124.441437 L108.423096,126.053892 L102.500222,126.053892 L102.500222,118.676647 L108.28609,118.676647 L108.28609,120.289102 L104.565851,120.289102 L104.565851,121.532695 L107.843456,121.532695 L107.843456,123.092455 L104.565851,123.092455 L104.565851,124.441437 L108.423096,124.441437 Z M116.6013,118.676647 L116.6013,126.053892 L114.883456,126.053892 L111.626929,122.122874 L111.626929,126.053892 L109.582378,126.053892 L109.582378,118.676647 L111.300222,118.676647 L114.556749,122.607665 L114.556749,118.676647 L116.6013,118.676647 Z M119.647048,120.331257 L117.38118,120.331257 L117.38118,118.676647 L123.989084,118.676647 L123.989084,120.331257 L121.733755,120.331257 L121.733755,126.053892 L119.647048,126.053892 L119.647048,120.331257 Z M127.835791,118.676647 L129.922498,118.676647 L129.922498,126.053892 L127.835791,126.053892 L127.835791,118.676647 Z M138.069084,126.053892 L138.048007,122.143952 L136.151001,125.326707 L135.223575,125.326707 L133.337108,122.249341 L133.337108,126.053892 L131.408486,126.053892 L131.408486,118.676647 L133.12633,118.676647 L135.718905,122.934371 L138.248246,118.676647 L139.96609,118.676647 L139.987168,126.053892 L138.069084,126.053892 Z M144.835072,118.676647 C145.502541,118.676647 146.082176,118.787304 146.573995,119.008623 C147.065813,119.229941 147.445211,119.546106 147.712198,119.957126 C147.979186,120.368146 148.112677,120.851175 148.112677,121.406228 C148.112677,121.96128 147.979186,122.442553 147.712198,122.85006 C147.445211,123.257567 147.065813,123.571975 146.573995,123.793293 C146.082176,124.014612 145.502541,124.125269 144.835072,124.125269 L143.549324,124.125269 L143.549324,126.053892 L141.462617,126.053892 L141.462617,118.676647 L144.835072,118.676647 Z M144.708605,122.481198 C145.13719,122.481198 145.460381,122.388105 145.678186,122.201916 C145.895992,122.015728 146.004893,121.750501 146.004893,121.406228 C146.004893,121.061954 145.895992,120.794971 145.678186,120.605269 C145.460381,120.415568 145.13719,120.320719 144.708605,120.320719 L143.549324,120.320719 L143.549324,122.481198 L144.708605,122.481198 Z M152.950043,126.201437 C152.170158,126.201437 151.469327,126.036329 150.847528,125.706108 C150.225728,125.375887 149.73743,124.919205 149.382617,124.336048 C149.027805,123.752891 148.850402,123.095972 148.850402,122.365269 C148.850402,121.634567 149.027805,120.977648 149.382617,120.394491 C149.73743,119.811334 150.225728,119.354652 150.847528,119.024431 C151.469327,118.69421 152.170158,118.529102 152.950043,118.529102 C153.729927,118.529102 154.430758,118.69421 155.052557,119.024431 C155.674357,119.354652 156.162656,119.811334 156.517468,120.394491 C156.87228,120.977648 157.049683,121.634567 157.049683,122.365269 C157.049683,123.095972 156.87228,123.752891 156.517468,124.336048 C156.162656,124.919205 155.674357,125.375887 155.052557,125.706108 C154.430758,126.036329 153.729927,126.201437 152.950043,126.201437 Z M152.950043,124.473054 C153.32242,124.473054 153.659662,124.38523 153.961779,124.209581 C154.263896,124.033931 154.502776,123.786269 154.678426,123.466587 C154.854075,123.146905 154.941899,122.779802 154.941899,122.365269 C154.941899,121.950736 154.854075,121.583634 154.678426,121.263952 C154.502776,120.94427 154.263896,120.696608 153.961779,120.520958 C153.659662,120.345309 153.32242,120.257485 152.950043,120.257485 C152.577665,120.257485 152.240423,120.345309 151.938306,120.520958 C151.636189,120.696608 151.397309,120.94427 151.221659,121.263952 C151.04601,121.583634 150.958186,121.950736 150.958186,122.365269 C150.958186,122.779802 151.04601,123.146905 151.221659,123.466587 C151.397309,123.786269 151.636189,124.033931 151.938306,124.209581 C152.240423,124.38523 152.577665,124.473054 152.950043,124.473054 Z M161.370641,124.093653 L160.232438,124.093653 L160.232438,126.053892 L158.145731,126.053892 L158.145731,118.676647 L161.518186,118.676647 C162.185655,118.676647 162.76529,118.787304 163.257108,119.008623 C163.748927,119.229941 164.128325,119.546106 164.395312,119.957126 C164.662299,120.368146 164.795791,120.851175 164.795791,121.406228 C164.795791,121.940202 164.671082,122.405667 164.421659,122.802635 C164.172237,123.199603 163.815674,123.510498 163.351959,123.735329 L164.943336,126.053892 L162.709084,126.053892 L161.370641,124.093653 Z M162.688007,121.406228 C162.688007,121.061954 162.579105,120.794971 162.3613,120.605269 C162.143495,120.415568 161.820304,120.320719 161.391719,120.320719 L160.232438,120.320719 L160.232438,122.481198 L161.391719,122.481198 C161.820304,122.481198 162.143495,122.388105 162.3613,122.201916 C162.579105,122.015728 162.688007,121.750501 162.688007,121.406228 Z M167.514833,120.331257 L165.248965,120.331257 L165.248965,118.676647 L171.856869,118.676647 L171.856869,120.331257 L169.60154,120.331257 L169.60154,126.053892 L167.514833,126.053892 L167.514833,120.331257 Z M178.559623,124.441437 L178.559623,126.053892 L172.636749,126.053892 L172.636749,118.676647 L178.422617,118.676647 L178.422617,120.289102 L174.702378,120.289102 L174.702378,121.532695 L177.979983,121.532695 L177.979983,123.092455 L174.702378,123.092455 L174.702378,124.441437 L178.559623,124.441437 Z M182.943815,124.093653 L181.805611,124.093653 L181.805611,126.053892 L179.718905,126.053892 L179.718905,118.676647 L183.09136,118.676647 C183.758828,118.676647 184.338463,118.787304 184.830282,119.008623 C185.322101,119.229941 185.701498,119.546106 185.968486,119.957126 C186.235473,120.368146 186.368965,120.851175 186.368965,121.406228 C186.368965,121.940202 186.244255,122.405667 185.994833,122.802635 C185.745411,123.199603 185.388847,123.510498 184.925132,123.735329 L186.51651,126.053892 L184.282258,126.053892 L182.943815,124.093653 Z M184.26118,121.406228 C184.26118,121.061954 184.152279,120.794971 183.934474,120.605269 C183.716668,120.415568 183.393478,120.320719 182.964893,120.320719 L181.805611,120.320719 L181.805611,122.481198 L182.964893,122.481198 C183.393478,122.481198 183.716668,122.388105 183.934474,122.201916 C184.152279,122.015728 184.26118,121.750501 184.26118,121.406228 Z M82.613276,132.08982 L80.2209407,139.467066 L77.9866892,139.467066 L76.5744736,134.977485 L75.0990245,139.467066 L72.864773,139.467066 L70.4724377,132.08982 L72.6223778,132.08982 L74.1083659,136.800719 L75.6681263,132.08982 L77.5862102,132.08982 L79.0721982,136.842874 L80.6214198,132.08982 L82.613276,132.08982 Z M83.5196233,132.08982 L85.6063299,132.08982 L85.6063299,139.467066 L83.5196233,139.467066 L83.5196233,132.08982 Z M88.6626174,133.744431 L86.3967491,133.744431 L86.3967491,132.08982 L93.0046533,132.08982 L93.0046533,133.744431 L90.7493239,133.744431 L90.7493239,139.467066 L88.6626174,139.467066 L88.6626174,133.744431 Z M100.803456,132.08982 L100.803456,139.467066 L98.7167491,139.467066 L98.7167491,136.58994 L95.8712401,136.58994 L95.8712401,139.467066 L93.7845335,139.467066 L93.7845335,132.08982 L95.8712401,132.08982 L95.8712401,134.861557 L98.7167491,134.861557 L98.7167491,132.08982 L100.803456,132.08982 Z M105.345731,132.08982 L107.432438,132.08982 L107.432438,139.467066 L105.345731,139.467066 L105.345731,132.08982 Z M115.579025,139.467066 L115.557947,135.557126 L113.660941,138.73988 L112.733516,138.73988 L110.847048,135.662515 L110.847048,139.467066 L108.918426,139.467066 L108.918426,132.08982 L110.63627,132.08982 L113.228845,136.347545 L115.758186,132.08982 L117.476031,132.08982 L117.497108,139.467066 L115.579025,139.467066 Z M123.915312,138.033772 L120.795791,138.033772 L120.21615,139.467066 L118.087288,139.467066 L121.343815,132.08982 L123.398905,132.08982 L126.665971,139.467066 L124.494953,139.467066 L123.915312,138.033772 Z M123.304054,136.49509 L122.355551,134.134371 L121.407048,136.49509 L123.304054,136.49509 Z M132.198905,135.620359 L134.043216,135.620359 L134.043216,138.676647 C133.621657,138.978764 133.136872,139.210618 132.588845,139.372216 C132.040818,139.533813 131.4928,139.614611 130.944773,139.614611 C130.171915,139.614611 129.476353,139.451259 128.858066,139.124551 C128.23978,138.797843 127.754994,138.342917 127.403695,137.75976 C127.052396,137.176604 126.876749,136.516171 126.876749,135.778443 C126.876749,135.040715 127.052396,134.380282 127.403695,133.797126 C127.754994,133.213969 128.243293,132.759044 128.868605,132.432335 C129.493918,132.105627 130.200019,131.942275 130.986929,131.942275 C131.675475,131.942275 132.293752,132.058202 132.841779,132.29006 C133.389806,132.521917 133.846488,132.855647 134.211839,133.291257 L132.883935,134.492695 C132.38509,133.944668 131.78789,133.670659 131.092318,133.670659 C130.459979,133.670659 129.950603,133.862114 129.564174,134.24503 C129.177745,134.627946 128.984534,135.139079 128.984534,135.778443 C128.984534,136.18595 129.072357,136.549539 129.248007,136.869222 C129.423656,137.188904 129.669562,137.438322 129.985731,137.617485 C130.3019,137.796648 130.663733,137.886228 131.07124,137.886228 C131.471721,137.886228 131.847606,137.80543 132.198905,137.643832 L132.198905,135.620359 Z M141.293995,137.854611 L141.293995,139.467066 L135.37112,139.467066 L135.37112,132.08982 L141.156989,132.08982 L141.156989,133.702275 L137.436749,133.702275 L137.436749,134.945868 L140.714354,134.945868 L140.714354,136.505629 L137.436749,136.505629 L137.436749,137.854611 L141.293995,137.854611 Z M145.045851,139.614611 C144.448642,139.614611 143.869007,139.540839 143.306929,139.393293 C142.74485,139.245748 142.288168,139.049023 141.936869,138.803114 L142.621899,137.264431 C142.95212,137.482237 143.33503,137.657884 143.770641,137.791377 C144.206252,137.924871 144.634831,137.991617 145.05639,137.991617 C145.857352,137.991617 146.257827,137.791379 146.257827,137.390898 C146.257827,137.180119 146.143656,137.023793 145.915312,136.921916 C145.686968,136.820039 145.319865,136.712895 144.813995,136.600479 C144.258942,136.481037 143.795234,136.352815 143.422857,136.215808 C143.05048,136.078802 142.730802,135.859243 142.463815,135.557126 C142.196828,135.255008 142.063336,134.847508 142.063336,134.334611 C142.063336,133.884948 142.186289,133.479203 142.432198,133.117365 C142.678108,132.755527 143.04521,132.469223 143.533516,132.258443 C144.021821,132.047664 144.620777,131.942275 145.330402,131.942275 C145.815195,131.942275 146.292954,131.996726 146.763695,132.105629 C147.234436,132.214531 147.648963,132.37437 148.007288,132.58515 L147.364414,134.134371 C146.661815,133.754968 145.980305,133.565269 145.319863,133.565269 C144.90533,133.565269 144.603217,133.626746 144.413516,133.749701 C144.223814,133.872655 144.128965,134.032494 144.128965,134.229222 C144.128965,134.425949 144.241379,134.573493 144.46621,134.671856 C144.691042,134.77022 145.052874,134.872095 145.551719,134.977485 C146.113798,135.096927 146.579262,135.225149 146.948126,135.362156 C147.31699,135.499162 147.636668,135.716965 147.907168,136.015569 C148.177669,136.314173 148.312917,136.719918 148.312917,137.232814 C148.312917,137.675451 148.189964,138.075926 147.944054,138.434251 C147.698145,138.792577 147.329286,139.078881 146.837468,139.293174 C146.345649,139.507466 145.748449,139.614611 145.045851,139.614611 Z" id="demo-content-importe" fill="#000000"></path><polygon id="1" fill="#000000" points="114.851133 59.3727202 114.851133 80.8337981 109.884427 80.8337981 109.884427 63.358349 105.592211 63.358349 105.592211 59.3727202"></polygon><path d="M89.4722863,99.8188216 C88.1373495,99.8188216 86.9389583,99.5366687 85.8770767,98.9723545 C84.8151952,98.4080403 83.9808722,97.6222598 83.3740827,96.6149893 C82.7672932,95.6077188 82.4639031,94.4669717 82.4639031,93.1927138 C82.4639031,91.9184559 82.7672932,90.7777089 83.3740827,89.7704384 C83.9808722,88.7631679 84.8151952,87.9773873 85.8770767,87.4130731 C86.9389583,86.8487589 88.1373495,86.566606 89.4722863,86.566606 C90.6373221,86.566606 91.6870521,86.7729113 92.6215079,87.1855282 C93.5559636,87.598145 94.3326425,88.1927898 94.9515677,88.9694803 L92.657915,91.0446899 C91.8326814,90.0495551 90.8314938,89.5519952 89.6543222,89.5519952 C88.9625822,89.5519952 88.3467002,89.7036903 87.8066576,90.0070851 C87.2666149,90.3104798 86.8479365,90.73826 86.5506097,91.2904384 C86.2532828,91.8426168 86.1046216,92.4767022 86.1046216,93.1927138 C86.1046216,93.9087254 86.2532828,94.5428108 86.5506097,95.0949893 C86.8479365,95.6471677 87.2666149,96.0749478 87.8066576,96.3783426 C88.3467002,96.6817373 88.9625822,96.8334324 89.6543222,96.8334324 C90.8314938,96.8334324 91.8326814,96.3358725 92.657915,95.3407378 L94.9515677,97.4159473 C94.3326425,98.1926379 93.5559636,98.7872826 92.6215079,99.1998994 C91.6870521,99.6125163 90.6373221,99.8188216 89.4722863,99.8188216 Z M96.5534839,86.8214563 L100.157795,86.8214563 L100.157795,96.7060072 L106.237795,96.7060072 L106.237795,99.5639713 L96.5534839,99.5639713 L96.5534839,86.8214563 Z M107.657676,86.8214563 L111.261987,86.8214563 L111.261987,99.5639713 L107.657676,99.5639713 L107.657676,86.8214563 Z M120.181747,99.8188216 C118.846811,99.8188216 117.648419,99.5366687 116.586538,98.9723545 C115.524656,98.4080403 114.690333,97.6222598 114.083544,96.6149893 C113.476754,95.6077188 113.173364,94.4669717 113.173364,93.1927138 C113.173364,91.9184559 113.476754,90.7777089 114.083544,89.7704384 C114.690333,88.7631679 115.524656,87.9773873 116.586538,87.4130731 C117.648419,86.8487589 118.846811,86.566606 120.181747,86.566606 C121.346783,86.566606 122.396513,86.7729113 123.330969,87.1855282 C124.265425,87.598145 125.042104,88.1927898 125.661029,88.9694803 L123.367376,91.0446899 C122.542142,90.0495551 121.540955,89.5519952 120.363783,89.5519952 C119.672043,89.5519952 119.056161,89.7036903 118.516119,90.0070851 C117.976076,90.3104798 117.557398,90.73826 117.260071,91.2904384 C116.962744,91.8426168 116.814083,92.4767022 116.814083,93.1927138 C116.814083,93.9087254 116.962744,94.5428108 117.260071,95.0949893 C117.557398,95.6471677 117.976076,96.0749478 118.516119,96.3783426 C119.056161,96.6817373 119.672043,96.8334324 120.363783,96.8334324 C121.540955,96.8334324 122.542142,96.3358725 123.367376,95.3407378 L125.661029,97.4159473 C125.042104,98.1926379 124.265425,98.7872826 123.330969,99.1998994 C122.396513,99.6125163 121.346783,99.8188216 120.181747,99.8188216 Z M132.177915,94.9402587 L130.830849,96.3783426 L130.830849,99.5639713 L127.262945,99.5639713 L127.262945,86.8214563 L130.830849,86.8214563 L130.830849,92.1187018 L135.764023,86.8214563 L139.732406,86.8214563 L134.526179,92.4645701 L140.00546,99.5639713 L135.818634,99.5639713 L132.177915,94.9402587 Z" id="click" fill="#000000"></path><polygon id="Fill-1" fill="#000000" points="115.02994 44.5568862 111.616766 38.8682635 108.203593 44.5568862 102.51497 42.2814371 105.928144 51.3832335 111.616766 51.3832335 117.305389 51.3832335 120.718563 42.2814371"></polygon></g></g></g></g></svg>