<svg xmlns="http://www.w3.org/2000/svg" xmlns:xlink="http://www.w3.org/1999/xlink" width="153px" height="39px" viewBox="0 0 153 39"><title>logo</title><defs><rect id="path-1" x="7" y="2" width="153" height="39"></rect><path d="M17.2759892,3.04870397 L61.3902827,10.8335793 C65.2131421,11.5082015 68,14.8299192 68,18.7118478 L68,32 C68,36.418278 64.418278,40 60,40 L28.529523,40 C25.7194202,40 23.1153656,38.5256093 21.6695796,36.115966 L9.02576309,15.0429385 C6.75257781,11.2542964 7.98109833,6.34021431 11.7697405,4.06702904 C13.4225487,3.07534407 15.3778296,2.71373463 17.2759892,3.04870397 Z" id="path-3"></path></defs><g id="Exports" stroke="none" stroke-width="1" fill="none" fill-rule="evenodd"><g transform="translate(-43, -387)" id="logo"><g transform="translate(36, 385)"><mask id="mask-2" fill="white"><use xlink:href="#path-1"></use></mask><g id="Rectangle"></g><g id="Rectangle" mask="url(#mask-2)"><use fill-opacity="0.102245411" fill="#000000" xlink:href="#path-3"></use><use fill="#F9F7F5" xlink:href="#path-3"></use><use fill="#1C4040" xlink:href="#path-3"></use></g><path d="M29.1937842,19.1185738 C29.5626511,19.7562517 29.9291332,20.3952657 30.2943723,21.034959 L32.4800224,24.8760168 C33.5745219,26.7953675 34.6783825,28.70901 35.8224278,30.5992116 C37.3817147,33.1793514 39.6698053,34.3233967 42.6168839,34.3233967 L53.6070864,34.3239411 C55.7150998,34.3358943 57.161877,34.6014196 60,40.2258749 L43.6350985,40.2258749 C39.1660763,40.2258749 36.4706593,37.3804757 34.4719795,33.8117525 C33.298506,31.7059136 32.2321916,30.240188 31.4928343,29.283874 C30.6864937,28.2354019 30.427397,28.1452969 29.4152578,28.1396292 L24.0604974,28.1398287 C22.0028191,28.1398287 20.636378,26.7946571 18,22.687297 C19.8540962,24.0056788 21.1615592,24.4343153 21.9224092,23.935863 C24.3551849,22.3443066 26.7719477,20.7263664 29.1937842,19.1185738 Z M46.3465488,16 C43.7905604,17.9828495 41.2290922,19.9547396 38.6783806,21.9371832 C38.0139129,22.4571484 37.7728049,23.4053442 38.5123651,24.4235588 C38.8070527,24.8201287 39.10722,25.2219753 39.4232176,25.602309 C40.0608955,26.3633823 40.8217658,26.6126084 42.1186346,26.6044903 C42.9170512,26.5992135 44.170894,26.588457 45.1675956,26.5777005 L49.2129612,26.5729618 C51.1505993,26.5844322 52.4846241,26.8331245 55.0968617,32.0111547 L43.9620555,32.0111547 C41.014774,32.0111547 38.7214066,30.864471 37.1671935,28.2845341 C35.0828676,24.8416417 33.1322876,21.326498 31.128331,17.8326644 L33.9039144,16 L46.3465488,16 Z" id="Combined-Shape" fill="#C2FC85" mask="url(#mask-2)" transform="translate(39, 28.1129) rotate(-180) translate(-39, -28.1129)"></path><path d="M75.392,36.0070125 L75.392,16.8070125 L82.364,16.8070125 L82.364,18.8830125 L77.72,18.8830125 L77.72,25.2790125 L82.124,25.2790125 L82.124,27.3550125 L77.72,27.3550125 L77.72,33.9310125 L82.364,33.9310125 L82.364,36.0070125 L75.392,36.0070125 Z M86.924,36.1630125 C85.972,36.1630125 85.246,35.9250125 84.746,35.4490125 C84.246,34.9730125 83.956,34.2190125 83.876,33.1870125 C83.868,32.9950125 83.862,32.7990125 83.858,32.5990125 C83.854,32.3990125 83.856,32.2070125 83.864,32.0230125 C83.904,31.4310125 84.022,30.9070125 84.218,30.4510125 C84.414,29.9950125 84.734,29.5830125 85.178,29.2150125 C85.622,28.8470125 86.22,28.4950125 86.972,28.1590125 C87.38,27.9830125 87.798,27.8150125 88.226,27.6550125 C88.654,27.4950125 89.092,27.3430125 89.54,27.1990125 L89.54,24.6190125 C89.54,24.1150125 89.428,23.7510125 89.204,23.5270125 C88.98,23.3030125 88.596,23.1910125 88.052,23.1910125 C87.58,23.1910125 87.21,23.2870125 86.942,23.4790125 C86.674,23.6710125 86.528,24.0070125 86.504,24.4870125 C86.488,24.6870125 86.478,24.9410125 86.474,25.2490125 C86.47,25.5570125 86.472,25.8530125 86.48,26.1370125 C86.488,26.4210125 86.496,26.6270125 86.504,26.7550125 L84.224,26.7550125 C84.216,26.4670125 84.208,26.1470125 84.2,25.7950125 C84.192,25.4430125 84.192,25.1030125 84.2,24.7750125 C84.232,23.9990125 84.378,23.3630125 84.638,22.8670125 C84.898,22.3710125 85.31,22.0050125 85.874,21.7690125 C86.438,21.5330125 87.192,21.4150125 88.136,21.4150125 C89.088,21.4150125 89.834,21.5410125 90.374,21.7930125 C90.914,22.0450125 91.294,22.4430125 91.514,22.9870125 C91.734,23.5310125 91.844,24.2390125 91.844,25.1110125 L91.832,36.0070125 L89.504,36.0070125 L89.504,34.6150125 L89.168,34.6150125 C88.936,35.1190125 88.666,35.5030125 88.358,35.7670125 C88.05,36.0310125 87.572,36.1630125 86.924,36.1630125 Z M87.68,34.4470125 C88.112,34.4470125 88.484,34.3390125 88.796,34.1230125 C89.108,33.9070125 89.348,33.5950125 89.516,33.1870125 L89.54,28.9870125 C89.22,29.0830125 88.892,29.1970125 88.556,29.3290125 C88.22,29.4610125 87.864,29.6350125 87.488,29.8510125 C86.968,30.1310125 86.628,30.4510125 86.468,30.8110125 C86.308,31.1710125 86.22,31.5750125 86.204,32.0230125 C86.196,32.2390125 86.194,32.4190125 86.198,32.5630125 C86.202,32.7070125 86.208,32.8630125 86.216,33.0310125 C86.256,33.4710125 86.402,33.8170125 86.654,34.0690125 C86.906,34.3210125 87.248,34.4470125 87.68,34.4470125 Z M98.024,40.2550125 C96.816,40.2550125 95.864,40.0790125 95.168,39.7270125 C94.472,39.3750125 94.08,38.8550125 93.992,38.1670125 C93.976,38.0550125 93.964,37.9410125 93.956,37.8250125 C93.948,37.7090125 93.948,37.6030125 93.956,37.5070125 C93.988,37.0750125 94.16,36.7250125 94.472,36.4570125 C94.784,36.1890125 95.148,36.0230125 95.564,35.9590125 L95.564,35.5990125 C95.108,35.4790125 94.78,35.3090125 94.58,35.0890125 C94.38,34.8690125 94.26,34.6030125 94.22,34.2910125 C94.212,34.2190125 94.208,34.1350125 94.208,34.0390125 C94.208,33.9430125 94.212,33.8470125 94.22,33.7510125 C94.252,33.4230125 94.402,33.1450125 94.67,32.9170125 C94.938,32.6890125 95.276,32.5470125 95.684,32.4910125 L95.684,32.1190125 C95.132,31.8710125 94.728,31.4990125 94.472,31.0030125 C94.216,30.5070125 94.064,29.8590125 94.016,29.0590125 C94.008,28.7870125 94,28.4630125 93.992,28.0870125 C93.984,27.7110125 93.98,27.3230125 93.98,26.9230125 C93.98,26.5230125 93.984,26.1430125 93.992,25.7830125 C94,25.4230125 94.008,25.1190125 94.016,24.8710125 C94.08,24.0390125 94.252,23.3690125 94.532,22.8610125 C94.812,22.3530125 95.232,21.9850125 95.792,21.7570125 C96.352,21.5290125 97.084,21.4150125 97.988,21.4150125 C98.9,21.4150125 99.636,21.5310125 100.196,21.7630125 C100.756,21.9950125 101.172,22.3750125 101.444,22.9030125 L101.816,22.9030125 C101.864,22.4710125 102.034,22.1470125 102.326,21.9310125 C102.618,21.7150125 103.016,21.6070125 103.52,21.6070125 L103.52,23.4070125 L103.232,23.4070125 C102.832,23.4070125 102.516,23.5310125 102.284,23.7790125 C102.052,24.0270125 101.936,24.4270125 101.936,24.9790125 L101.936,25.5910125 C101.936,25.6550125 101.938,25.8270125 101.942,26.1070125 C101.946,26.3870125 101.948,26.7130125 101.948,27.0850125 C101.948,27.4570125 101.946,27.8230125 101.942,28.1830125 C101.938,28.5430125 101.928,28.8350125 101.912,29.0590125 C101.864,29.8990125 101.702,30.5710125 101.426,31.0750125 C101.15,31.5790125 100.734,31.9430125 100.178,32.1670125 C99.622,32.3910125 98.888,32.5030125 97.976,32.5030125 C97.304,32.4950125 96.81,32.5590125 96.494,32.6950125 C96.178,32.8310125 96.02,33.0470125 96.02,33.3430125 L96.02,33.4630125 C96.02,33.6550125 96.086,33.8070125 96.218,33.9190125 C96.35,34.0310125 96.564,34.1130125 96.86,34.1650125 C97.156,34.2170125 97.564,34.2510125 98.084,34.2670125 C99.5,34.3070125 100.55,34.5270125 101.234,34.9270125 C101.918,35.3270125 102.312,35.9630125 102.416,36.8350125 C102.432,36.9550125 102.44,37.0870125 102.44,37.2310125 C102.44,37.3750125 102.432,37.5150125 102.416,37.6510125 C102.344,38.2990125 102.126,38.8150125 101.762,39.1990125 C101.398,39.5830125 100.9,39.8550125 100.268,40.0150125 C99.636,40.1750125 98.888,40.2550125 98.024,40.2550125 Z M98.084,38.6110125 C98.572,38.6110125 98.986,38.5770125 99.326,38.5090125 C99.666,38.4410125 99.934,38.3250125 100.13,38.1610125 C100.326,37.9970125 100.448,37.7790125 100.496,37.5070125 C100.528,37.4030125 100.542,37.3030125 100.538,37.2070125 C100.534,37.1110125 100.52,37.0110125 100.496,36.9070125 C100.448,36.6670125 100.336,36.4750125 100.16,36.3310125 C99.984,36.1870125 99.728,36.0830125 99.392,36.0190125 C99.056,35.9550125 98.62,35.9230125 98.084,35.9230125 C97.436,35.9150125 96.92,35.9730125 96.536,36.0970125 C96.152,36.2210125 95.932,36.5030125 95.876,36.9430125 C95.86,37.0790125 95.852,37.1870125 95.852,37.2670125 C95.852,37.3470125 95.86,37.4350125 95.876,37.5310125 C95.916,37.8110125 96.028,38.0290125 96.212,38.1850125 C96.396,38.3410125 96.648,38.4510125 96.968,38.5150125 C97.288,38.5790125 97.66,38.6110125 98.084,38.6110125 Z M97.988,30.7270125 C98.556,30.7270125 98.964,30.6150125 99.212,30.3910125 C99.46,30.1670125 99.6,29.8110125 99.632,29.3230125 C99.648,29.0750125 99.662,28.7370125 99.674,28.3090125 C99.686,27.8810125 99.692,27.4250125 99.692,26.9410125 C99.692,26.4570125 99.686,26.0030125 99.674,25.5790125 C99.662,25.1550125 99.648,24.8190125 99.632,24.5710125 C99.608,24.0910125 99.472,23.7410125 99.224,23.5210125 C98.976,23.3010125 98.564,23.1910125 97.988,23.1910125 C97.42,23.1910125 97.002,23.3030125 96.734,23.5270125 C96.466,23.7510125 96.32,24.1230125 96.296,24.6430125 C96.288,24.8670125 96.28,25.1870125 96.272,25.6030125 C96.264,26.0190125 96.258,26.4650125 96.254,26.9410125 C96.25,27.4170125 96.252,27.8670125 96.26,28.2910125 C96.268,28.7150125 96.28,29.0470125 96.296,29.2870125 C96.328,29.7830125 96.472,30.1470125 96.728,30.3790125 C96.984,30.6110125 97.404,30.7270125 97.988,30.7270125 Z M104.852,36.0070125 L104.852,16.8070125 L107.18,16.8070125 L107.18,36.0070125 L104.852,36.0070125 Z M113.528,36.1990125 C112.128,36.1990125 111.128,35.9290125 110.528,35.3890125 C109.928,34.8490125 109.596,33.9790125 109.532,32.7790125 C109.516,32.2510125 109.502,31.6450125 109.49,30.9610125 C109.478,30.2770125 109.472,29.5690125 109.472,28.8370125 C109.472,28.1050125 109.478,27.3930125 109.49,26.7010125 C109.502,26.0090125 109.516,25.3990125 109.532,24.8710125 C109.604,23.6230125 109.95,22.7350125 110.57,22.2070125 C111.19,21.6790125 112.164,21.4150125 113.492,21.4150125 C114.836,21.4150125 115.804,21.6810125 116.396,22.2130125 C116.988,22.7450125 117.312,23.5990125 117.368,24.7750125 C117.376,24.9590125 117.382,25.2990125 117.386,25.7950125 C117.39,26.2910125 117.39,26.8490125 117.386,27.4690125 C117.382,28.0890125 117.368,28.6790125 117.344,29.2390125 L111.836,29.2390125 C111.836,29.8550125 111.842,30.4770125 111.854,31.1050125 C111.866,31.7330125 111.88,32.3750125 111.896,33.0310125 C111.912,33.5430125 112.044,33.9010125 112.292,34.1050125 C112.54,34.3090125 112.94,34.4110125 113.492,34.4110125 C114.044,34.4110125 114.434,34.3090125 114.662,34.1050125 C114.89,33.9010125 115.016,33.5390125 115.04,33.0190125 C115.056,32.7790125 115.064,32.4670125 115.064,32.0830125 C115.064,31.6990125 115.052,31.2830125 115.028,30.8350125 L117.344,30.8350125 C117.36,31.0590125 117.372,31.3750125 117.38,31.7830125 C117.388,32.1910125 117.384,32.5230125 117.368,32.7790125 C117.312,34.0030125 116.992,34.8790125 116.408,35.4070125 C115.824,35.9350125 114.864,36.1990125 113.528,36.1990125 Z M111.848,27.5230125 L115.064,27.5230125 C115.064,27.1150125 115.066,26.7070125 115.07,26.2990125 C115.074,25.8910125 115.072,25.5290125 115.064,25.2130125 C115.056,24.8970125 115.048,24.6750125 115.04,24.5470125 C115.008,24.0430125 114.872,23.6910125 114.632,23.4910125 C114.392,23.2910125 114.012,23.1910125 113.492,23.1910125 C112.908,23.1910125 112.5,23.3010125 112.268,23.5210125 C112.036,23.7410125 111.912,24.0830125 111.896,24.5470125 C111.888,25.0350125 111.878,25.5290125 111.866,26.0290125 C111.854,26.5290125 111.848,27.0270125 111.848,27.5230125 Z M124.724,36.0070125 L124.724,16.8070125 L131.696,16.8070125 L131.696,18.8830125 L127.052,18.8830125 L127.052,25.2790125 L131.456,25.2790125 L131.456,27.3550125 L127.052,27.3550125 L127.052,33.9310125 L131.696,33.9310125 L131.696,36.0070125 L124.724,36.0070125 Z M133.652,36.0070125 L133.652,16.8070125 L135.98,16.8070125 L135.98,36.0070125 L133.652,36.0070125 Z M138.32,18.9190125 L138.32,16.8070125 L141.104,16.8070125 L141.104,18.9190125 L138.32,18.9190125 Z M138.548,36.0070125 L138.548,21.6070125 L140.876,21.6070125 L140.876,36.0070125 L138.548,36.0070125 Z M147.728,36.1990125 C146.28,36.1990125 145.258,35.9370125 144.662,35.4130125 C144.066,34.8890125 143.764,33.9990125 143.756,32.7430125 L143.744,23.3950125 L142.532,23.3950125 L142.532,21.6070125 L143.804,21.6070125 L143.804,17.5270125 L146.168,17.5270125 L146.168,21.6070125 L148.712,21.6070125 L148.712,23.3950125 L146.096,23.3950125 L146.12,33.0190125 C146.12,33.5710125 146.232,33.9430125 146.456,34.1350125 C146.68,34.3270125 147.112,34.4230125 147.752,34.4230125 C147.992,34.4230125 148.202,34.4170125 148.382,34.4050125 C148.562,34.3930125 148.768,34.3830125 149,34.3750125 L149,36.0790125 C148.808,36.1110125 148.608,36.1390125 148.4,36.1630125 C148.192,36.1870125 147.968,36.1990125 147.728,36.1990125 Z M154.304,36.1990125 C152.904,36.1990125 151.904,35.9290125 151.304,35.3890125 C150.704,34.8490125 150.372,33.9790125 150.308,32.7790125 C150.292,32.2510125 150.278,31.6450125 150.266,30.9610125 C150.254,30.2770125 150.248,29.5690125 150.248,28.8370125 C150.248,28.1050125 150.254,27.3930125 150.266,26.7010125 C150.278,26.0090125 150.292,25.3990125 150.308,24.8710125 C150.38,23.6230125 150.726,22.7350125 151.346,22.2070125 C151.966,21.6790125 152.94,21.4150125 154.268,21.4150125 C155.612,21.4150125 156.58,21.6810125 157.172,22.2130125 C157.764,22.7450125 158.088,23.5990125 158.144,24.7750125 C158.152,24.9590125 158.158,25.2990125 158.162,25.7950125 C158.166,26.2910125 158.166,26.8490125 158.162,27.4690125 C158.158,28.0890125 158.144,28.6790125 158.12,29.2390125 L152.612,29.2390125 C152.612,29.8550125 152.618,30.4770125 152.63,31.1050125 C152.642,31.7330125 152.656,32.3750125 152.672,33.0310125 C152.688,33.5430125 152.82,33.9010125 153.068,34.1050125 C153.316,34.3090125 153.716,34.4110125 154.268,34.4110125 C154.82,34.4110125 155.21,34.3090125 155.438,34.1050125 C155.666,33.9010125 155.792,33.5390125 155.816,33.0190125 C155.832,32.7790125 155.84,32.4670125 155.84,32.0830125 C155.84,31.6990125 155.828,31.2830125 155.804,30.8350125 L158.12,30.8350125 C158.136,31.0590125 158.148,31.3750125 158.156,31.7830125 C158.164,32.1910125 158.16,32.5230125 158.144,32.7790125 C158.088,34.0030125 157.768,34.8790125 157.184,35.4070125 C156.6,35.9350125 155.64,36.1990125 154.304,36.1990125 Z M152.624,27.5230125 L155.84,27.5230125 C155.84,27.1150125 155.842,26.7070125 155.846,26.2990125 C155.85,25.8910125 155.848,25.5290125 155.84,25.2130125 C155.832,24.8970125 155.824,24.6750125 155.816,24.5470125 C155.784,24.0430125 155.648,23.6910125 155.408,23.4910125 C155.168,23.2910125 154.788,23.1910125 154.268,23.1910125 C153.684,23.1910125 153.276,23.3010125 153.044,23.5210125 C152.812,23.7410125 152.688,24.0830125 152.672,24.5470125 C152.664,25.0350125 152.654,25.5290125 152.642,26.0290125 C152.63,26.5290125 152.624,27.0270125 152.624,27.5230125 Z" id="Combined-Shape" fill="#1C4040" fill-rule="nonzero" mask="url(#mask-2)"></path></g></g></g></svg>