<svg xmlns="http://www.w3.org/2000/svg" xmlns:xlink="http://www.w3.org/1999/xlink" width="400px" height="401px" viewBox="0 0 400 401"><title>0BD08897-2C0E-4D7A-956B-239E81385CFE</title><g id="Page-1" stroke="none" stroke-width="1" fill="none" fill-rule="evenodd" opacity="0.05"><g id="Landingpage" transform="translate(-1126.000000, -4963.000000)" fill="#FFFFFF"><g id="Group-36" transform="translate(0.000000, 4798.000000)"><g id="Combined-Shape-2" transform="translate(1126.000000, 165.000000)"><path d="M104.537552,150.591826 C109.396316,150.346704 113.651626,153.811044 114.385303,158.631086 L114.385303,158.631086 L114.401581,159.202983 L122.749255,212.586111 L126.923093,240.984747 L127.167679,242.782129 L127.167679,243.958591 C127.31439,244.628537 127.510018,245.298482 127.754604,245.935716 C128.178499,247.095823 128.798064,248.190591 129.580658,249.154641 C130.346933,250.036998 131.276279,250.788637 132.303419,251.376847 C135.531465,253.239567 139.509799,253.239567 142.738012,251.376847 L142.738012,251.376847 L142.721692,251.360491 L155.960686,243.82779 L182.797207,228.648191 L209.927148,213.387025 L223.573509,205.740128 L228.709415,202.847977 L231.220229,201.557153 C234.62775,199.955868 238.263496,198.877414 241.980798,198.370897 C258.121444,196.214155 273.822585,204.629046 280.963603,219.285773 C282.398359,222.177882 283.409221,225.233503 284.012465,228.403404 C285.186357,234.628507 284.762462,241.05021 282.805976,247.063237 C280.898532,252.913128 277.654209,258.239728 273.333453,262.618885 C272.844321,263.158112 272.208478,263.664629 271.670429,264.203856 L271.670429,264.203856 L270.12156,265.543705 L267.610746,267.635192 L262.605481,271.818167 L242.779754,288.304945 L204.041537,319.677259 L199.280858,323.53346 C197.862422,324.742632 196.476541,325.87007 195.107021,327.128225 C192.400288,329.562716 189.808085,332.128009 187.346189,334.824062 L187.346189,334.824062 L187.362508,334.824062 C186.139699,336.212936 184.94953,337.618164 183.808235,339.007038 L183.808235,339.007038 L180.253963,343.484076 C177.46584,346.833384 174.694286,349.98718 171.906288,352.977338 C166.232374,358.892483 159.955341,364.219083 153.205411,368.876006 C146.830292,373.157281 140.145892,376.996918 133.216488,380.330247 C120.401556,386.555769 106.836585,391.130814 92.8475522,393.924916 C86.6519084,395.134047 80.4074306,396.032717 74.114119,396.604613 L74.114119,396.604613 L57.4187704,398.320302 C46.7721467,399.366046 36.9736466,400.28103 28.2018979,401 C25.6583198,400.918432 23.571418,398.97406 23.3268561,396.441394 C22.495386,393.712672 23.9627402,390.820521 26.6529035,389.905495 L26.6529035,389.905495 L26.6529035,389.921838 C35.294011,388.239069 45.0111213,386.441686 55.6577451,384.56261 L55.6577451,384.56261 L72.3530936,381.637791 C78.2390388,380.624716 83.6679487,379.627996 89.5538939,378.075736 C101.830818,374.873251 113.683681,370.232658 124.868313,364.219627 C130.81937,361.000828 136.558396,357.389791 142.020279,353.386558 C147.547274,349.285151 152.650207,344.628663 157.264384,339.497826 L157.264384,339.497826 L157.248065,339.514181 C159.612126,336.719954 161.878436,333.942333 164.014272,331.148231 L164.014272,331.148231 L167.65006,326.246203 C169.019579,324.563225 170.40546,322.912915 171.823897,321.262606 C174.677132,317.978134 177.709759,314.84107 180.889054,311.850912 L180.889054,311.850912 L180.872734,311.850912 C182.470646,310.560088 184.13367,309.040455 185.764054,307.667937 L185.764054,307.667937 L190.394509,303.697374 L228.529607,271.328257 L248.192136,254.596357 L253.164846,250.413382 L255.675659,248.321894 C256.001761,248.060458 256.311543,247.782709 256.588686,247.472248 C256.800633,247.227126 257.04522,247.047384 257.257168,246.802303 C259.066902,244.923311 260.436421,242.652206 261.235335,240.152209 C261.985374,237.782972 262.148404,235.250348 261.69187,232.799376 C261.447324,231.639269 261.056027,230.511832 260.517978,229.449733 C259.963651,228.305982 259.262571,227.243883 258.431059,226.279833 C255.186736,222.325834 250.181053,220.31604 245.110675,220.920605 C243.675919,221.133016 242.257482,221.557839 240.936838,222.17876 L240.936838,222.17876 L240.936838,222.162405 L239.942296,222.668921 L234.80639,225.561072 L221.078222,233.534659 L193.866891,248.68163 L166.900146,263.616106 L153.579763,270.985253 C143.422313,276.655234 130.998469,276.442739 121.020494,270.446026 C117.825004,268.485466 115.004283,265.985385 112.67282,263.044252 C110.390398,260.152143 108.596942,256.900423 107.374133,253.420063 C106.803528,251.753189 106.330716,250.053855 106.004614,248.321853 L106.004614,248.321853 L105.988336,248.321853 C105.825306,247.488562 105.613317,246.475487 105.613317,245.854567 L105.613317,245.854567 L105.368771,244.057184 L101.781859,215.528039 L96.4013659,171.180137 C88.6897844,172.585198 81.4181253,175.82073 75.2062035,180.591831 C74.2116616,181.441477 73.2497173,182.225785 72.2877731,183.108141 L72.2877731,183.108141 L69.0269628,186.114655 L62.6359834,192.095054 L50.3753368,203.385741 C34.4625827,218.189708 20.5712179,230.820201 8.96294205,241.032516 C6.81086153,242.503041 3.89234765,242.143557 2.16412864,240.199142 C-0.151057079,238.451077 -0.689064687,235.199316 0.941319577,232.797368 C11.3759124,221.375754 24.2400959,207.699517 39.2233448,192.094929 L39.2233448,192.094929 L50.848316,180.101503 L56.9458747,173.82704 L60.1251699,170.559091 C61.331701,169.333604 62.5871078,168.173498 63.9240295,166.997036 C75.2718579,157.144039 89.5543113,151.376134 104.537552,150.591826 Z M285.132892,322.165854 C283.681337,311.702628 282.94863,301.142349 282.94863,290.58207 C282.997535,290.093875 284.761128,289.296532 287.847083,288.629331 C290.949214,287.96213 293.708632,287.880771 293.953534,288.41779 C298.296894,298.766992 301.872568,309.40947 304.648288,320.27982 L304.648288,320.27982 L304.648288,321.077162 C306.884966,334.290798 300.909346,347.536928 289.512365,354.648021 C283.340289,358.439646 276.107348,360.164555 268.873989,359.562465 C266.669497,359.367212 264.498068,358.944088 262.391762,358.309463 C260.922143,360.506279 259.191361,362.524088 257.248365,364.314109 C251.729611,369.391392 244.659687,372.46695 237.181385,373.069039 C230.323801,373.622263 223.465799,372.011207 217.58799,368.431207 C215.677723,367.243279 213.914296,365.843848 212.31418,364.265368 C208.461125,367.015408 203.921728,368.642702 199.186709,368.984431 C198.517295,369.033171 197.52126,366.901472 196.933479,364.06999 C196.31297,362.068303 196.166045,359.969093 196.476279,357.90246 C200.656204,355.542927 203.823792,351.734931 205.37492,347.194995 C206.256466,344.461369 208.575154,342.410983 211.399863,341.857718 C214.224656,341.304411 217.147217,342.329624 219.008579,344.52644 L219.008579,344.52644 L218.992236,344.52644 L220.755662,346.609361 C224.15185,350.742669 229.523889,352.727942 234.7977,351.816664 C240.300152,350.74271 244.49642,346.300256 245.24751,340.783847 C245.818906,336.650498 248.611137,333.168104 252.513473,331.70356 C256.41585,330.222728 260.808072,330.987535 263.975661,333.688834 C267.878038,337.089828 273.478301,337.724452 278.066603,335.316095 C282.272633,333.068373 284.99947,328.835999 285.344354,324.127198 L285.364,323.79 L285.381471,323.90881 L285.381471,323.90881 L285.381471,323.111426 L285.377323,323.451434 L285.377323,323.451434 L285.364,323.789 Z M202.829338,4.63207408 C209.271034,1.33628503 216.462521,-0.246286798 223.70327,0.0310840683 C238.739181,0.585742268 252.307236,9.24935299 259.140109,22.6764251 C262.515674,29.3001634 264.081219,36.7074399 263.657228,44.1468765 C263.428909,47.8665948 262.695065,51.5539442 261.471978,55.0779868 L261.471978,55.0779868 L261.471978,55.5511169 L272.202431,54.0827762 L288.069959,51.8149844 L292.244745,51.2765733 C294.185186,51.0155331 296.142117,50.9176326 298.099048,50.9502522 C310.362483,51.2601591 321.517095,58.1290663 327.322553,68.9457365 C329.214274,72.4695703 330.469966,76.2873979 331.024419,80.2356204 L331.024419,80.2356204 L332.117044,88.213844 L335.297063,112.555737 C341.216492,108.313897 348.196318,105.768776 355.453349,105.197745 C367.341888,104.072057 379.132319,108.232411 387.67769,116.553119 C396.2393,124.890116 400.707657,136.555063 399.908561,148.481467 C399.468121,155.888743 396.924424,163.034562 392.570122,169.071064 C384.383783,180.687144 370.603648,187.050218 356.448618,185.777637 C353.186857,185.435027 349.974276,184.700856 346.892114,183.558795 C345.391738,182.971434 343.940332,182.302544 342.505249,181.552043 L342.505249,181.552043 L341.885544,181.225722 L344.429575,205.111109 L345.636339,217.34742 C346.17451,222.307183 345.473271,227.332103 343.597874,231.965671 C340.20586,240.139361 333.242734,246.30655 324.729927,248.672243 C323.425306,248.965903 322.039152,248.672243 320.96285,247.872792 C319.886549,247.073382 319.217915,245.83342 319.136381,244.4956 C318.451466,242.048505 319.315772,239.421814 321.305308,237.855573 C328.774251,234.86969 333.046853,226.989618 331.497631,219.109545 L331.497631,219.109545 L331.497631,219.093257 L329.36131,206.987674 L324.811628,180.508593 C324.159108,175.059326 326.491144,169.675383 330.910573,166.428711 C332.019521,165.62926 333.242609,164.96037 334.530906,164.47091 C335.183216,164.242447 335.835527,164.046688 336.50416,163.883548 L336.50416,163.883548 L338.053382,163.589847 L338.966616,163.589847 C339.602645,163.557227 340.238632,163.557227 340.890942,163.589847 C342.29342,163.557227 343.695898,163.704078 345.065729,164.046688 C346.321421,164.372967 347.544508,164.829809 348.686062,165.433459 L348.686062,165.433459 L350.023288,166.10239 C350.838665,166.461331 351.686689,166.75499 352.534672,167.016031 C357.736873,168.663842 363.395379,168.207042 368.271529,165.72716 C371.663543,164.095764 374.533709,161.583095 376.621102,158.450613 C378.724777,155.334419 379.882654,151.696313 379.964187,147.927561 C380.078368,144.061242 379.14881,140.243331 377.240807,136.866139 C373.228838,129.932285 365.498803,126.033013 357.540825,126.930323 C353.5944,127.338381 349.876001,128.985983 346.940625,131.645335 L346.940625,131.645335 L345.733862,132.820016 C344.380104,134.141506 342.847164,135.250948 341.16748,136.115638 C340.254246,136.572438 339.292083,136.947709 338.297315,137.241369 L338.297315,137.241369 L336.748093,137.61664 L334.367171,137.61664 C333.388684,137.69821 332.393916,137.69821 331.399148,137.61664 C323.065857,137.339311 316.053719,131.253524 314.586031,123.047256 L314.586031,123.047256 L310.117757,91.9671843 L308.992527,84.233712 C308.780531,82.9121803 308.35654,81.6233101 307.687906,80.4322985 C305.730767,76.8103137 301.963773,74.5261911 297.837915,74.4609519 C297.104071,74.4120017 296.370228,74.4120017 295.636384,74.4609519 L295.636384,74.4609519 L291.461597,74.999363 L275.431253,77.2182046 L259.351645,79.4370462 L257.345786,79.730706 L255.013792,79.730706 C246.419577,79.909884 238.852985,74.0692663 236.896054,65.6996913 C236.427976,63.5696807 236.393303,63.4818351 236.390735,62.8199836 L236.390529,62.6487788 C236.113282,60.8215392 236.113282,58.9616383 236.390529,57.134357 C236.684058,55.4374704 237.205907,53.7896594 237.939751,52.239749 L237.939751,52.239749 L238.983447,50.2329973 C239.35851,49.482538 239.700968,48.6994175 239.978215,47.8999662 C240.532669,46.3335998 240.875127,44.6857888 240.972983,43.0216471 C241.184979,39.6281246 240.500064,36.234435 238.983447,33.1998533 C235.934183,27.0656176 229.818539,23.0357417 222.985666,22.676801 C216.152793,22.2035874 209.580803,25.3849364 205.699546,31.0300872 C200.856,38.0455945 201.182469,47.410046 206.498641,54.0830686 L206.498641,54.0830686 L207.330342,55.1272294 L207.754334,55.5840706 L208.292505,56.1713901 L209.711265,57.2155509 C211.717124,59.6956416 213.021745,62.6647754 213.46206,65.8135883 L213.46206,65.8135883 L213.46206,68.3260898 C213.592522,69.924867 213.478342,71.5237277 213.135884,73.0899688 C211.7987,79.4689558 206.938831,84.5430759 200.611525,86.1582673 C199.894004,86.3377377 199.176442,86.4845467 198.442598,86.5824472 L198.442598,86.5824472 L197.529363,86.5824472 L195.686571,86.7945371 L167.050042,90.2532988 L160.070216,91.0853696 C158.635133,91.1996008 157.232656,91.5258802 155.89543,92.0479606 C153.449339,93.0758742 151.345664,94.7889244 149.845329,96.9751464 C148.377642,99.2104858 147.594869,101.820804 147.594869,104.496445 L147.594869,104.496445 L147.578587,104.480156 L147.578587,106.650048 L147.95365,109.83148 L148.671213,116.145312 C152.389277,149.266091 155.259526,177.914104 157.020785,199.678173 C156.87425,202.239792 154.868182,204.295494 152.307869,204.523914 C149.568332,205.372316 146.64928,203.920264 145.670794,201.228292 C141.496007,179.80629 136.571012,151.434354 131.189295,118.200805 L131.189295,118.200805 L130.194527,111.93584 L129.689002,108.754408 C129.509611,107.791817 129.26501,105.997155 129.26501,104.577764 C129.03665,98.3616666 130.618393,92.2107244 133.814693,86.8758982 C137.174143,81.3940541 142.066575,77.0379407 147.888315,74.3459689 C150.824025,72.9918177 153.955031,72.0618464 157.151331,71.5887163 L157.151331,71.5887163 L164.082311,70.4956052 L189.375672,66.6126219 C181.678368,57.0192905 178.710345,44.4404945 181.319587,32.4163568 C183.928828,20.3759301 191.837961,10.1790737 202.829338,4.63207408 Z" id="plugins-icon" transform="translate(200.000000, 200.500000) scale(-1, 1) translate(-200.000000, -200.500000) "></path></g></g></g></g></svg>