<svg xmlns="http://www.w3.org/2000/svg" xmlns:xlink="http://www.w3.org/1999/xlink" width="68px" height="25px" viewBox="0 0 68 25"><title>Premium Stock images</title><g id="Page-1" stroke="none" stroke-width="1" fill="none" fill-rule="evenodd"><g id="Landingpage" transform="translate(-1400, -1179)" fill="#000000" fill-rule="nonzero"><g id="Getty-images" transform="translate(272, 1128)"><g id="Premium-Stock-images" transform="translate(1128.6211, 51.8828)"><path d="M2.2734375,4.58203125 L2.87109375,4.58203125 C3.4296875,4.58203125 3.84765625,4.47167969 4.125,4.25097656 C4.40234375,4.03027344 4.54101562,3.70898438 4.54101562,3.28710938 C4.54101562,2.86132812 4.42480469,2.546875 4.19238281,2.34375 C3.95996094,2.140625 3.59570312,2.0390625 3.09960938,2.0390625 L2.2734375,2.0390625 L2.2734375,4.58203125 Z M6.375,3.22265625 C6.375,4.14453125 6.08691406,4.84960938 5.51074219,5.33789062 C4.93457031,5.82617188 4.11523438,6.0703125 3.05273438,6.0703125 L2.2734375,6.0703125 L2.2734375,9.1171875 L0.45703125,9.1171875 L0.45703125,0.55078125 L3.19335938,0.55078125 C4.23242188,0.55078125 5.02246094,0.774414062 5.56347656,1.22167969 C6.10449219,1.66894531 6.375,2.3359375 6.375,3.22265625 Z" id="Shape"></path><path d="M11.0078125,2.44335938 C11.25,2.44335938 11.4511719,2.4609375 11.6113281,2.49609375 L11.4765625,4.171875 C11.3320312,4.1328125 11.15625,4.11328125 10.9492188,4.11328125 C10.3789062,4.11328125 9.93457031,4.25976562 9.61621094,4.55273438 C9.29785156,4.84570312 9.13867188,5.25585938 9.13867188,5.78320312 L9.13867188,9.1171875 L7.3515625,9.1171875 L7.3515625,2.56640625 L8.70507812,2.56640625 L8.96875,3.66796875 L9.05664062,3.66796875 C9.25976562,3.30078125 9.53417969,3.00488281 9.87988281,2.78027344 C10.2255859,2.55566406 10.6015625,2.44335938 11.0078125,2.44335938 Z" id="Path"></path><path d="M15.0136719,3.71484375 C14.6347656,3.71484375 14.3378906,3.83496094 14.1230469,4.07519531 C13.9082031,4.31542969 13.7851562,4.65625 13.7539062,5.09765625 L16.2617188,5.09765625 C16.2539062,4.65625 16.1386719,4.31542969 15.9160156,4.07519531 C15.6933594,3.83496094 15.3925781,3.71484375 15.0136719,3.71484375 Z M15.265625,9.234375 C14.2109375,9.234375 13.3867188,8.94335938 12.7929688,8.36132812 C12.1992188,7.77929688 11.9023438,6.95507812 11.9023438,5.88867188 C11.9023438,4.79101562 12.1767578,3.94238281 12.7255859,3.34277344 C13.2744141,2.74316406 14.0332031,2.44335938 15.0019531,2.44335938 C15.9277344,2.44335938 16.6484375,2.70703125 17.1640625,3.234375 C17.6796875,3.76171875 17.9375,4.49023438 17.9375,5.41992188 L17.9375,6.28710938 L13.7128906,6.28710938 C13.7324219,6.79492188 13.8828125,7.19140625 14.1640625,7.4765625 C14.4453125,7.76171875 14.8398438,7.90429688 15.3476562,7.90429688 C15.7421875,7.90429688 16.1152344,7.86328125 16.4667969,7.78125 C16.8183594,7.69921875 17.1855469,7.56835938 17.5683594,7.38867188 L17.5683594,8.77148438 C17.2558594,8.92773438 16.921875,9.04394531 16.5664062,9.12011719 C16.2109375,9.19628906 15.7773438,9.234375 15.265625,9.234375 Z" id="Shape"></path><path d="M24.7558594,9.1171875 L22.96875,9.1171875 L22.96875,5.29101562 C22.96875,4.81835938 22.8896484,4.46386719 22.7314453,4.22753906 C22.5732422,3.99121094 22.3242188,3.87304688 21.984375,3.87304688 C21.5273438,3.87304688 21.1953125,4.04101562 20.9882812,4.37695312 C20.78125,4.71289062 20.6777344,5.265625 20.6777344,6.03515625 L20.6777344,9.1171875 L18.890625,9.1171875 L18.890625,2.56640625 L20.2558594,2.56640625 L20.4960938,3.40429688 L20.5957031,3.40429688 C20.7714844,3.10351562 21.0253906,2.86816406 21.3574219,2.69824219 C21.6894531,2.52832031 22.0703125,2.44335938 22.5,2.44335938 C23.4804688,2.44335938 24.1445312,2.76367188 24.4921875,3.40429688 L24.6503906,3.40429688 C24.8261719,3.09960938 25.0849609,2.86328125 25.4267578,2.6953125 C25.7685547,2.52734375 26.1542969,2.44335938 26.5839844,2.44335938 C27.3261719,2.44335938 27.8876953,2.63378906 28.2685547,3.01464844 C28.6494141,3.39550781 28.8398438,4.00585938 28.8398438,4.84570312 L28.8398438,9.1171875 L27.046875,9.1171875 L27.046875,5.29101562 C27.046875,4.81835938 26.9677734,4.46386719 26.8095703,4.22753906 C26.6513672,3.99121094 26.4023438,3.87304688 26.0625,3.87304688 C25.625,3.87304688 25.2978516,4.02929688 25.0810547,4.34179688 C24.8642578,4.65429688 24.7558594,5.15039062 24.7558594,5.83007812 L24.7558594,9.1171875 Z" id="Path"></path><path d="M30.0976562,0.873046875 C30.0976562,0.291015625 30.421875,0 31.0703125,0 C31.71875,0 32.0429688,0.291015625 32.0429688,0.873046875 C32.0429688,1.15039062 31.9619141,1.36621094 31.7998047,1.52050781 C31.6376953,1.67480469 31.3945312,1.75195312 31.0703125,1.75195312 C30.421875,1.75195312 30.0976562,1.45898438 30.0976562,0.873046875 Z M31.9609375,9.1171875 L30.1738281,9.1171875 L30.1738281,2.56640625 L31.9609375,2.56640625 L31.9609375,9.1171875 Z" id="Shape"></path><path d="M37.9765625,9.1171875 L37.7363281,8.27929688 L37.6425781,8.27929688 C37.4511719,8.58398438 37.1796875,8.81933594 36.828125,8.98535156 C36.4765625,9.15136719 36.0761719,9.234375 35.6269531,9.234375 C34.8574219,9.234375 34.2773438,9.02832031 33.8867188,8.61621094 C33.4960938,8.20410156 33.3007812,7.61132812 33.3007812,6.83789062 L33.3007812,2.56640625 L35.0878906,2.56640625 L35.0878906,6.39257812 C35.0878906,6.86523438 35.171875,7.21972656 35.3398438,7.45605469 C35.5078125,7.69238281 35.7753906,7.81054688 36.1425781,7.81054688 C36.6425781,7.81054688 37.0039062,7.64355469 37.2265625,7.30957031 C37.4492188,6.97558594 37.5605469,6.421875 37.5605469,5.6484375 L37.5605469,2.56640625 L39.3476562,2.56640625 L39.3476562,9.1171875 L37.9765625,9.1171875 Z" id="Path"></path><path d="M46.5878906,9.1171875 L44.8007812,9.1171875 L44.8007812,5.29101562 C44.8007812,4.81835938 44.7216797,4.46386719 44.5634766,4.22753906 C44.4052734,3.99121094 44.15625,3.87304688 43.8164062,3.87304688 C43.359375,3.87304688 43.0273438,4.04101562 42.8203125,4.37695312 C42.6132812,4.71289062 42.5097656,5.265625 42.5097656,6.03515625 L42.5097656,9.1171875 L40.7226562,9.1171875 L40.7226562,2.56640625 L42.0878906,2.56640625 L42.328125,3.40429688 L42.4277344,3.40429688 C42.6035156,3.10351562 42.8574219,2.86816406 43.1894531,2.69824219 C43.5214844,2.52832031 43.9023438,2.44335938 44.3320312,2.44335938 C45.3125,2.44335938 45.9765625,2.76367188 46.3242188,3.40429688 L46.4824219,3.40429688 C46.6582031,3.09960938 46.9169922,2.86328125 47.2587891,2.6953125 C47.6005859,2.52734375 47.9863281,2.44335938 48.4160156,2.44335938 C49.1582031,2.44335938 49.7197266,2.63378906 50.1005859,3.01464844 C50.4814453,3.39550781 50.671875,4.00585938 50.671875,4.84570312 L50.671875,9.1171875 L48.8789062,9.1171875 L48.8789062,5.29101562 C48.8789062,4.81835938 48.7998047,4.46386719 48.6416016,4.22753906 C48.4833984,3.99121094 48.234375,3.87304688 47.8945312,3.87304688 C47.4570312,3.87304688 47.1298828,4.02929688 46.9130859,4.34179688 C46.6962891,4.65429688 46.5878906,5.15039062 46.5878906,5.83007812 L46.5878906,9.1171875 Z" id="Path"></path><path d="M5.390625,18.8378906 C5.390625,19.5917969 5.1171875,20.1796875 4.5703125,20.6015625 C4.0234375,21.0234375 3.28125,21.234375 2.34375,21.234375 C1.328125,21.234375 0.546875,21.1035156 0,20.8417969 L0,19.8808594 C0.3515625,20.0292969 0.734375,20.1464844 1.1484375,20.2324219 C1.5625,20.3183594 1.97265625,20.3613281 2.37890625,20.3613281 C3.04296875,20.3613281 3.54296875,20.2353516 3.87890625,19.9833984 C4.21484375,19.7314453 4.3828125,19.3808594 4.3828125,18.9316406 C4.3828125,18.6347656 4.32324219,18.3916016 4.20410156,18.2021484 C4.08496094,18.0126953 3.88574219,17.8378906 3.60644531,17.6777344 C3.32714844,17.5175781 2.90234375,17.3359375 2.33203125,17.1328125 C1.53515625,16.8476562 0.965820312,16.5097656 0.624023438,16.1191406 C0.282226562,15.7285156 0.111328125,15.21875 0.111328125,14.5898438 C0.111328125,13.9296875 0.359375,13.4042969 0.85546875,13.0136719 C1.3515625,12.6230469 2.0078125,12.4277344 2.82421875,12.4277344 C3.67578125,12.4277344 4.45898438,12.5839844 5.17382812,12.8964844 L4.86328125,13.7636719 C4.15625,13.4667969 3.46875,13.3183594 2.80078125,13.3183594 C2.2734375,13.3183594 1.86132813,13.4316406 1.56445312,13.6582031 C1.26757812,13.8847656 1.11914062,14.1992188 1.11914062,14.6015625 C1.11914062,14.8984375 1.17382812,15.1416016 1.28320312,15.3310547 C1.39257813,15.5205078 1.57714844,15.6943359 1.83691406,15.8525391 C2.09667969,16.0107422 2.49414062,16.1855469 3.02929688,16.3769531 C3.92773438,16.6972656 4.54589844,17.0410156 4.88378906,17.4082031 C5.22167969,17.7753906 5.390625,18.2519531 5.390625,18.8378906 Z" id="Path"></path><path d="M8.5703125,20.4316406 C8.7421875,20.4316406 8.90820312,20.4189453 9.06835938,20.3935547 C9.22851562,20.3681641 9.35546875,20.3417969 9.44921875,20.3144531 L9.44921875,21.0585938 C9.34375,21.109375 9.18847656,21.1513672 8.98339844,21.1845703 C8.77832031,21.2177734 8.59375,21.234375 8.4296875,21.234375 C7.1875,21.234375 6.56640625,20.5800781 6.56640625,19.2714844 L6.56640625,15.4511719 L5.64648438,15.4511719 L5.64648438,14.9824219 L6.56640625,14.578125 L6.9765625,13.2070312 L7.5390625,13.2070312 L7.5390625,14.6953125 L9.40234375,14.6953125 L9.40234375,15.4511719 L7.5390625,15.4511719 L7.5390625,19.2304688 C7.5390625,19.6171875 7.63085938,19.9140625 7.81445312,20.1210938 C7.99804688,20.328125 8.25,20.4316406 8.5703125,20.4316406 Z" id="Path"></path><path d="M15.7753906,17.9003906 C15.7753906,18.9472656 15.5117188,19.7646484 14.984375,20.3525391 C14.4570312,20.9404297 13.7285156,21.234375 12.7988281,21.234375 C12.2246094,21.234375 11.7148438,21.0996094 11.2695312,20.8300781 C10.8242188,20.5605469 10.4804688,20.1738281 10.2382812,19.6699219 C9.99609375,19.1660156 9.875,18.5761719 9.875,17.9003906 C9.875,16.8535156 10.1367188,16.0380859 10.6601562,15.4541016 C11.1835938,14.8701172 11.9101562,14.578125 12.8398438,14.578125 C13.7382812,14.578125 14.4521484,14.8769531 14.9814453,15.4746094 C15.5107422,16.0722656 15.7753906,16.8808594 15.7753906,17.9003906 Z M10.8828125,17.9003906 C10.8828125,18.7207031 11.046875,19.3457031 11.375,19.7753906 C11.703125,20.2050781 12.1855469,20.4199219 12.8222656,20.4199219 C13.4589844,20.4199219 13.9423828,20.2060547 14.2724609,19.7783203 C14.6025391,19.3505859 14.7675781,18.7246094 14.7675781,17.9003906 C14.7675781,17.0839844 14.6025391,16.4638672 14.2724609,16.0400391 C13.9423828,15.6162109 13.4550781,15.4042969 12.8105469,15.4042969 C12.1738281,15.4042969 11.6933594,15.6132812 11.3691406,16.03125 C11.0449219,16.4492188 10.8828125,17.0722656 10.8828125,17.9003906 Z" id="Shape"></path><path d="M19.546875,21.234375 C18.6171875,21.234375 17.8974609,20.9482422 17.3876953,20.3759766 C16.8779297,19.8037109 16.6230469,18.9941406 16.6230469,17.9472656 C16.6230469,16.8730469 16.8818359,16.0429688 17.3994141,15.4570312 C17.9169922,14.8710938 18.6542969,14.578125 19.6113281,14.578125 C19.9199219,14.578125 20.2285156,14.6113281 20.5371094,14.6777344 C20.8457031,14.7441406 21.0878906,14.8222656 21.2636719,14.9121094 L20.9648438,15.7382812 C20.75,15.6523438 20.515625,15.5810547 20.2617188,15.5244141 C20.0078125,15.4677734 19.7832031,15.4394531 19.5878906,15.4394531 C18.2832031,15.4394531 17.6308594,16.2714844 17.6308594,17.9355469 C17.6308594,18.7246094 17.7900391,19.3300781 18.1083984,19.7519531 C18.4267578,20.1738281 18.8984375,20.3847656 19.5234375,20.3847656 C20.0585938,20.3847656 20.6074219,20.2695312 21.1699219,20.0390625 L21.1699219,20.9003906 C20.7402344,21.1230469 20.1992188,21.234375 19.546875,21.234375 Z" id="Path"></path><path d="M23.1542969,17.8300781 C23.3222656,17.5917969 23.578125,17.2792969 23.921875,16.8925781 L25.9960938,14.6953125 L27.1503906,14.6953125 L24.5488281,17.4316406 L27.3320312,21.1171875 L26.1542969,21.1171875 L23.8867188,18.0820312 L23.1542969,18.7148438 L23.1542969,21.1171875 L22.1933594,21.1171875 L22.1933594,12 L23.1542969,12 L23.1542969,16.8339844 C23.1542969,17.0488281 23.1386719,17.3808594 23.1074219,17.8300781 L23.1542969,17.8300781 Z" id="Path"></path><path d="M31.5820312,21.1171875 L30.609375,21.1171875 L30.609375,14.6953125 L31.5820312,14.6953125 L31.5820312,21.1171875 Z M30.5273438,12.9550781 C30.5273438,12.7324219 30.5820312,12.5693359 30.6914062,12.4658203 C30.8007812,12.3623047 30.9375,12.3105469 31.1015625,12.3105469 C31.2578125,12.3105469 31.3925781,12.3632812 31.5058594,12.46875 C31.6191406,12.5742188 31.6757812,12.7363281 31.6757812,12.9550781 C31.6757812,13.1738281 31.6191406,13.3369141 31.5058594,13.4443359 C31.3925781,13.5517578 31.2578125,13.6054688 31.1015625,13.6054688 C30.9375,13.6054688 30.8007812,13.5517578 30.6914062,13.4443359 C30.5820312,13.3369141 30.5273438,13.1738281 30.5273438,12.9550781 Z" id="Shape"></path><path d="M41.3300781,21.1171875 L41.3300781,16.9394531 C41.3300781,16.4277344 41.2207031,16.0439453 41.0019531,15.7880859 C40.7832031,15.5322266 40.4433594,15.4042969 39.9824219,15.4042969 C39.3769531,15.4042969 38.9296875,15.578125 38.640625,15.9257812 C38.3515625,16.2734375 38.2070312,16.8085938 38.2070312,17.53125 L38.2070312,21.1171875 L37.234375,21.1171875 L37.234375,16.9394531 C37.234375,16.4277344 37.125,16.0439453 36.90625,15.7880859 C36.6875,15.5322266 36.3457031,15.4042969 35.8808594,15.4042969 C35.2714844,15.4042969 34.8251953,15.5869141 34.5419922,15.9521484 C34.2587891,16.3173828 34.1171875,16.9160156 34.1171875,17.7480469 L34.1171875,21.1171875 L33.1445312,21.1171875 L33.1445312,14.6953125 L33.9355469,14.6953125 L34.09375,15.5742188 L34.140625,15.5742188 C34.3242188,15.2617188 34.5830078,15.0175781 34.9169922,14.8417969 C35.2509766,14.6660156 35.625,14.578125 36.0390625,14.578125 C37.0429688,14.578125 37.6992188,14.9414062 38.0078125,15.6679688 L38.0546875,15.6679688 C38.2460938,15.3320312 38.5234375,15.0664062 38.8867188,14.8710938 C39.25,14.6757812 39.6640625,14.578125 40.1289062,14.578125 C40.8554688,14.578125 41.3994141,14.7646484 41.7607422,15.1376953 C42.1220703,15.5107422 42.3027344,16.1074219 42.3027344,16.9277344 L42.3027344,21.1171875 L41.3300781,21.1171875 Z" id="Path"></path><path d="M47.7558594,21.1171875 L47.5625,20.203125 L47.515625,20.203125 C47.1953125,20.6054688 46.8759766,20.8779297 46.5576172,21.0205078 C46.2392578,21.1630859 45.8417969,21.234375 45.3652344,21.234375 C44.7285156,21.234375 44.2294922,21.0703125 43.8681641,20.7421875 C43.5068359,20.4140625 43.3261719,19.9472656 43.3261719,19.3417969 C43.3261719,18.0449219 44.3632812,17.3652344 46.4375,17.3027344 L47.5273438,17.2675781 L47.5273438,16.8691406 C47.5273438,16.3652344 47.4189453,15.9931641 47.2021484,15.7529297 C46.9853516,15.5126953 46.6386719,15.3925781 46.1621094,15.3925781 C45.6269531,15.3925781 45.0214844,15.5566406 44.3457031,15.8847656 L44.046875,15.140625 C44.3632812,14.96875 44.7099609,14.8339844 45.0869141,14.7363281 C45.4638672,14.6386719 45.8417969,14.5898438 46.2207031,14.5898438 C46.9863281,14.5898438 47.5537109,14.7597656 47.9228516,15.0996094 C48.2919922,15.4394531 48.4765625,15.984375 48.4765625,16.734375 L48.4765625,21.1171875 L47.7558594,21.1171875 Z M45.5585938,20.4316406 C46.1640625,20.4316406 46.6396484,20.265625 46.9853516,19.9335938 C47.3310547,19.6015625 47.5039062,19.1367188 47.5039062,18.5390625 L47.5039062,17.9589844 L46.53125,18 C45.7578125,18.0273438 45.2001953,18.1474609 44.8583984,18.3603516 C44.5166016,18.5732422 44.3457031,18.9042969 44.3457031,19.3535156 C44.3457031,19.7050781 44.4521484,19.9726562 44.6650391,20.15625 C44.8779297,20.3398438 45.1757812,20.4316406 45.5585938,20.4316406 Z" id="Shape"></path><path d="M55.2363281,14.6953125 L55.2363281,15.3105469 L54.046875,15.4511719 C54.15625,15.5878906 54.2539062,15.7666016 54.3398438,15.9873047 C54.4257812,16.2080078 54.46875,16.4570312 54.46875,16.734375 C54.46875,17.3632812 54.2539062,17.8652344 53.8242188,18.2402344 C53.3945312,18.6152344 52.8046875,18.8027344 52.0546875,18.8027344 C51.8632812,18.8027344 51.6835938,18.7871094 51.515625,18.7558594 C51.1015625,18.9746094 50.8945312,19.25 50.8945312,19.5820312 C50.8945312,19.7578125 50.9667969,19.8876953 51.1113281,19.9716797 C51.2558594,20.0556641 51.5039062,20.0976562 51.8554688,20.0976562 L52.9921875,20.0976562 C53.6875,20.0976562 54.2216797,20.2441406 54.5947266,20.5371094 C54.9677734,20.8300781 55.1542969,21.2558594 55.1542969,21.8144531 C55.1542969,22.5253906 54.8691406,23.0673828 54.2988281,23.4404297 C53.7285156,23.8134766 52.8964844,24 51.8027344,24 C50.9628906,24 50.3154297,23.84375 49.8603516,23.53125 C49.4052734,23.21875 49.1777344,22.7773438 49.1777344,22.2070312 C49.1777344,21.8164062 49.3027344,21.4785156 49.5527344,21.1933594 C49.8027344,20.9082031 50.1542969,20.7148438 50.6074219,20.6132812 C50.4433594,20.5390625 50.3056641,20.4238281 50.1943359,20.2675781 C50.0830078,20.1113281 50.0273438,19.9296875 50.0273438,19.7226562 C50.0273438,19.4882812 50.0898438,19.2832031 50.2148438,19.1074219 C50.3398438,18.9316406 50.5371094,18.7617188 50.8066406,18.5976562 C50.4746094,18.4609375 50.2041016,18.2285156 49.9951172,17.9003906 C49.7861328,17.5722656 49.6816406,17.1972656 49.6816406,16.7753906 C49.6816406,16.0722656 49.8925781,15.5302734 50.3144531,15.1494141 C50.7363281,14.7685547 51.3339844,14.578125 52.1074219,14.578125 C52.4433594,14.578125 52.7460938,14.6171875 53.015625,14.6953125 L55.2363281,14.6953125 Z M50.1152344,22.1953125 C50.1152344,22.5429688 50.2617188,22.8066406 50.5546875,22.9863281 C50.8476562,23.1660156 51.2675781,23.2558594 51.8144531,23.2558594 C52.6308594,23.2558594 53.2353516,23.1337891 53.6279297,22.8896484 C54.0205078,22.6455078 54.2167969,22.3144531 54.2167969,21.8964844 C54.2167969,21.5488281 54.109375,21.3076172 53.8945312,21.1728516 C53.6796875,21.0380859 53.2753906,20.9707031 52.6816406,20.9707031 L51.515625,20.9707031 C51.0742188,20.9707031 50.7304688,21.0761719 50.484375,21.2871094 C50.2382812,21.4980469 50.1152344,21.8007812 50.1152344,22.1953125 Z M50.6425781,16.7519531 C50.6425781,17.2011719 50.7695312,17.5410156 51.0234375,17.7714844 C51.2773438,18.0019531 51.6308594,18.1171875 52.0839844,18.1171875 C53.0332031,18.1171875 53.5078125,17.65625 53.5078125,16.734375 C53.5078125,15.7695312 53.0273438,15.2871094 52.0664062,15.2871094 C51.609375,15.2871094 51.2578125,15.4101562 51.0117188,15.65625 C50.765625,15.9023438 50.6425781,16.2675781 50.6425781,16.7519531 Z" id="Shape"></path><path d="M58.7675781,21.234375 C57.8183594,21.234375 57.0693359,20.9453125 56.5205078,20.3671875 C55.9716797,19.7890625 55.6972656,18.9863281 55.6972656,17.9589844 C55.6972656,16.9238281 55.9521484,16.1015625 56.4619141,15.4921875 C56.9716797,14.8828125 57.65625,14.578125 58.515625,14.578125 C59.3203125,14.578125 59.9570312,14.8427734 60.4257812,15.3720703 C60.8945312,15.9013672 61.1289062,16.5996094 61.1289062,17.4667969 L61.1289062,18.0820312 L56.7050781,18.0820312 C56.7246094,18.8359375 56.9150391,19.4082031 57.2763672,19.7988281 C57.6376953,20.1894531 58.1464844,20.3847656 58.8027344,20.3847656 C59.4941406,20.3847656 60.1777344,20.2402344 60.8535156,19.9511719 L60.8535156,20.8183594 C60.5097656,20.9667969 60.1845703,21.0732422 59.8779297,21.1376953 C59.5712891,21.2021484 59.2011719,21.234375 58.7675781,21.234375 Z M58.5039062,15.3925781 C57.9882812,15.3925781 57.5771484,15.5605469 57.2705078,15.8964844 C56.9638672,16.2324219 56.7832031,16.6972656 56.7285156,17.2910156 L60.0859375,17.2910156 C60.0859375,16.6777344 59.9492188,16.2080078 59.6757812,15.8818359 C59.4023438,15.5556641 59.0117188,15.3925781 58.5039062,15.3925781 Z" id="Shape"></path><path d="M66.4296875,19.3652344 C66.4296875,19.9628906 66.2070312,20.4238281 65.7617188,20.7480469 C65.3164062,21.0722656 64.6914062,21.234375 63.8867188,21.234375 C63.0351562,21.234375 62.3710938,21.0996094 61.8945312,20.8300781 L61.8945312,19.9277344 C62.203125,20.0839844 62.5341797,20.2070312 62.8876953,20.296875 C63.2412109,20.3867188 63.5820312,20.4316406 63.9101562,20.4316406 C64.4179688,20.4316406 64.8085938,20.3505859 65.0820312,20.1884766 C65.3554688,20.0263672 65.4921875,19.7792969 65.4921875,19.4472656 C65.4921875,19.1972656 65.3837891,18.9833984 65.1669922,18.8056641 C64.9501953,18.6279297 64.5273438,18.4179688 63.8984375,18.1757812 C63.3007812,17.953125 62.8759766,17.7587891 62.6240234,17.5927734 C62.3720703,17.4267578 62.1845703,17.2382812 62.0615234,17.0273438 C61.9384766,16.8164062 61.8769531,16.5644531 61.8769531,16.2714844 C61.8769531,15.7480469 62.0898438,15.3349609 62.515625,15.0322266 C62.9414062,14.7294922 63.5253906,14.578125 64.2675781,14.578125 C64.9589844,14.578125 65.6347656,14.71875 66.2949219,15 L65.9492188,15.7910156 C65.3046875,15.5253906 64.7207031,15.3925781 64.1972656,15.3925781 C63.7363281,15.3925781 63.3886719,15.4648438 63.1542969,15.609375 C62.9199219,15.7539062 62.8027344,15.953125 62.8027344,16.2070312 C62.8027344,16.3789062 62.8466797,16.5253906 62.9345703,16.6464844 C63.0224609,16.7675781 63.1640625,16.8828125 63.359375,16.9921875 C63.5546875,17.1015625 63.9296875,17.2597656 64.484375,17.4667969 C65.2460938,17.7441406 65.7607422,18.0234375 66.0283203,18.3046875 C66.2958984,18.5859375 66.4296875,18.9394531 66.4296875,19.3652344 Z" id="Path"></path></g></g></g></g></svg>