<svg xmlns="http://www.w3.org/2000/svg" xmlns:xlink="http://www.w3.org/1999/xlink" width="66" height="135" viewBox="0 0 66 135"><defs><path id="a" d="M0 0h66v135l-32.34-16.46L0 135z"></path><path id="c" d="M0-10h66v79L33.09 58.65 0 69z"></path></defs><g fill="none" fill-rule="evenodd"><g><mask id="b" fill="#fff"><use xlink:href="#a"></use></mask><use fill="#F20487" xlink:href="#a"></use><use fill="#FFF" xlink:href="#a"></use><use fill="#FF5100" xlink:href="#a"></use><use fill="#FF5100" xlink:href="#a"></use><g mask="url(#b)"><use fill="#000" xlink:href="#c"></use><use fill="#0A303A" xlink:href="#c"></use><use fill="#000" xlink:href="#c"></use></g></g><g fill="#FFF" fill-rule="nonzero"><path d="M26.53 74.3 24.99 82h-1.8l-2.53-4.22L19.8 82h-2.14l1.54-7.7H21l2.55 4.21.84-4.21zM30.5 75.98l-.26 1.3h3.42l-.32 1.63H29.9l-.27 1.41h4.03L33.32 82h-6.17l1.54-7.7h6.03l-.34 1.68zM48.66 74.3 44.63 82h-2.34l-.56-4.64L39.28 82h-2.34l-.95-7.7h2.15l.59 4.92 2.6-4.92h2l.56 4.98 2.62-4.98zM14.68 85.3h2.17L15.3 93h-2.17zM26.33 85.3 24.79 93h-1.8l-2.53-4.22L19.6 93h-2.13l1.54-7.7h1.79l2.55 4.21.84-4.21zM29.78 87.03h-2.36l.35-1.73h6.89l-.35 1.73h-2.35L30.76 93h-2.18zM42.48 87.75a3 3 0 0 1-.56 1.82c-.38.51-.9.89-1.57 1.12l1.3 2.31h-2.27l-1.15-2.05h-1.1l-.4 2.05h-2.18l1.54-7.7h3.29c.98 0 1.74.22 2.29.65.54.43.81 1.03.81 1.8Zm-2.2.21c0-.31-.1-.55-.32-.7a1.47 1.47 0 0 0-.89-.24h-1.14l-.47 2.25h1.3c.49 0 .86-.11 1.12-.34.27-.23.4-.55.4-.97ZM47.46 93.15c-.78 0-1.46-.14-2.03-.42a3.16 3.16 0 0 1-1.8-2.96c0-.88.2-1.68.61-2.38.4-.7.98-1.25 1.7-1.65.73-.4 1.57-.6 2.5-.6.77 0 1.45.15 2.03.44a3.16 3.16 0 0 1 1.8 2.95c0 .88-.2 1.68-.62 2.38a4.3 4.3 0 0 1-1.7 1.65c-.73.4-1.56.6-2.5.6Zm.18-1.8a2.26 2.26 0 0 0 2.13-1.34c.2-.4.3-.85.3-1.34 0-.52-.16-.94-.48-1.25a1.83 1.83 0 0 0-1.34-.47 2.26 2.26 0 0 0-2.12 1.34c-.2.4-.3.85-.3 1.34 0 .52.16.94.48 1.25.32.31.76.47 1.33.47ZM16.8 96.3c1 0 1.76.22 2.3.65.55.43.82 1.04.82 1.83 0 .64-.16 1.2-.47 1.69-.31.48-.75.86-1.33 1.12-.57.26-1.24.4-2 .4h-1.55l-.4 2.01H12l1.54-7.7h3.26Zm-.59 3.97c.49 0 .86-.11 1.12-.34.26-.23.39-.55.39-.97 0-.31-.1-.55-.31-.7-.21-.17-.51-.24-.9-.24h-1.14l-.46 2.25h1.3ZM28.54 98.75a3 3 0 0 1-.56 1.82c-.38.51-.9.89-1.58 1.12l1.31 2.31h-2.27l-1.15-2.05h-1.1l-.4 2.05H20.6l1.54-7.7h3.29c.98 0 1.74.22 2.28.65.55.43.82 1.03.82 1.8Zm-2.2.21c0-.31-.1-.55-.32-.7a1.47 1.47 0 0 0-.9-.24h-1.14l-.46 2.25h1.3c.48 0 .86-.11 1.12-.34.27-.23.4-.55.4-.97ZM30.9 96.3h2.18l-1.54 7.7h-2.18zM37.9 104.15c-.78 0-1.46-.14-2.05-.42a3.14 3.14 0 0 1-1.82-2.96c0-.88.2-1.68.6-2.38.42-.7.99-1.25 1.72-1.65a5.2 5.2 0 0 1 4.4-.21c.55.25.96.6 1.23 1.07l-1.57 1.25c-.38-.6-.94-.9-1.7-.9a2.37 2.37 0 0 0-2.17 1.3c-.2.41-.31.87-.31 1.37 0 .52.17.94.5 1.26.34.31.8.47 1.38.47.73 0 1.36-.3 1.88-.9l1.29 1.27c-.42.51-.9.87-1.47 1.1a5.1 5.1 0 0 1-1.9.33ZM45.77 97.98l-.25 1.3h3.42l-.32 1.63h-3.43l-.28 1.41h4.04L48.6 104h-6.17l1.54-7.7H50l-.34 1.68zM51.6 96.3h2.5l-1.4 4.9h-1.65l.56-4.9Zm-.14 7.8c-.34 0-.62-.1-.85-.3a.99.99 0 0 1-.33-.77c0-.35.12-.64.37-.87.25-.23.56-.35.94-.35.35 0 .63.1.85.3.22.2.33.45.33.75 0 .34-.12.63-.38.88a1.3 1.3 0 0 1-.93.36Z"></path></g><path d="M54.54 17.5c.28.46.15 1.05-.28 1.36l-.07.05-6.6 3.98c.38.27.72.58 1.04.93 1.44 1.55 2.16 3.78 2.16 6.69 0 2.06-.38 3.83-1.16 5.3a7.87 7.87 0 0 1-3.26 3.36c-1.4.76-3.02 1.14-4.86 1.14-.97 0-1.9-.1-2.78-.32a7.49 7.49 0 0 1-2.26-.93l1.56-3.09c.88.6 2.01.91 3.4.91 1.54 0 2.77-.45 3.67-1.36.9-.91 1.38-2.23 1.45-3.94-1.09 1.09-2.6 1.63-4.52 1.63a7.1 7.1 0 0 1-3.17-.7 5.54 5.54 0 0 1-2.66-2.74l-3.77 2.28a4.48 4.48 0 0 1 .82 2.67c0 1.13-.32 2.11-.96 2.95a6.14 6.14 0 0 1-2.7 1.95c-1.17.46-2.51.7-4.04.7a10.8 10.8 0 0 1-4.01-.7 7.54 7.54 0 0 1-.93-.44l-6.09 3.67a1.03 1.03 0 0 1-1.13-1.71l.07-.05 5.48-3.3a4.77 4.77 0 0 1-1.03-3.06c0-.96.24-1.8.71-2.53a5.19 5.19 0 0 1 2.05-1.77 4.27 4.27 0 0 1-2.1-3.74c-.01-1.06.28-1.98.87-2.76a5.64 5.64 0 0 1 2.47-1.8 9.7 9.7 0 0 1 3.64-.64c1.4 0 2.62.21 3.68.64a5.63 5.63 0 0 1 2.49 1.8c.59.78.88 1.7.88 2.76 0 .81-.18 1.54-.55 2.17-.36.63-.89 1.16-1.58 1.57l.34.19 4.95-3v-.07a5.67 5.67 0 0 1 3.4-5.32 8.1 8.1 0 0 1 3.5-.74c.98 0 1.88.11 2.7.35l7.77-4.7c.48-.29 1.12-.13 1.41.36ZM28.95 34.14l-4.8 2.9c.42.12.88.18 1.4.18a4 4 0 0 0 2.51-.72 2.3 2.3 0 0 0 .93-1.9c0-.16-.02-.31-.04-.46ZM25.55 32c-1.04 0-1.86.24-2.47.7-.6.47-.9 1.1-.9 1.9 0 .41.07.78.22 1.1l5.33-3.21a4.4 4.4 0 0 0-2.18-.49Zm-8.44-11.18-.23 1.15.28.03c.63.1 1.17.28 1.61.55l-.62 1.28-.2-.12a3.53 3.53 0 0 0-1.34-.42l-.36 1.82.23.07c.3.1.56.2.78.3.28.13.5.31.69.55.18.23.27.54.27.9a2.1 2.1 0 0 1-.76 1.68c-.51.43-1.2.68-2.06.76l-.23 1.13h-1.03l.23-1.13-.29-.04a5.88 5.88 0 0 1-1.06-.24 3.7 3.7 0 0 1-1.02-.51l.69-1.28.21.14a4 4 0 0 0 1.74.59l.35-1.74-.24-.07c-.3-.1-.57-.2-.79-.32a1.9 1.9 0 0 1-.7-.57 1.54 1.54 0 0 1-.28-.95c0-.46.11-.86.35-1.2.23-.36.57-.64 1-.85.44-.2.94-.33 1.52-.37l.23-1.14h1.03Zm27.23 4.05-4.46 2.7c.04.72.32 1.32.84 1.77.56.5 1.3.74 2.25.74.91 0 1.66-.26 2.24-.77a2.5 2.5 0 0 0 .88-1.96c0-.8-.29-1.45-.85-1.95-.26-.23-.56-.4-.9-.53Zm-18.79-.28c-.85 0-1.53.2-2.04.61-.5.41-.76.97-.76 1.68 0 .7.25 1.24.75 1.64.5.4 1.19.6 2.05.6.87 0 1.56-.2 2.08-.6.52-.4.78-.95.78-1.64 0-.71-.26-1.27-.78-1.68a3.28 3.28 0 0 0-2.08-.6Zm-9.6 2-.27 1.4c.28-.05.5-.14.64-.28.16-.14.23-.31.23-.5 0-.26-.2-.47-.6-.62Zm-.38-3.25-.16.03c-.21.06-.38.15-.51.27a.72.72 0 0 0-.25.52c0 .15.05.28.16.38.1.1.26.2.46.28l.3-1.48Z" fill="#FFF" fill-rule="nonzero"></path></g></svg>