<svg xmlns="http://www.w3.org/2000/svg" xmlns:xlink="http://www.w3.org/1999/xlink" width="112px" height="89px" viewBox="0 0 112 89"><title>74FDA2E1-9A1B-4358-9AE3-D85B76EDB345</title><g id="Page-1" stroke="none" stroke-width="1" fill="none" fill-rule="evenodd"><g id="Landingpage" transform="translate(-736.000000, -5696.000000)" fill="#218DC1" fill-rule="nonzero"><g id="Group-36" transform="translate(0.000000, 4798.000000)"><g id="Plugins-Copy" transform="translate(273.000000, 325.000000)"><g id="Group-25" transform="translate(1.000000, 531.000000)"><g id="Group-11-Copy-19" transform="translate(426.000000, 0.000000)"><g id="wordfence-security-logo" transform="translate(36.000000, 42.000000)"><path d="M56.1037975,16.8987342 L56.1037975,16.8987342 L61.9620253,29.7417722 L61.9620253,29.9670886 L59.9341772,29.9670886 C59.9341772,29.9670886 59.9341772,29.9670886 59.9341772,29.9670886 C59.9341772,30.1924051 59.9341772,30.4177215 59.9341772,30.643038 C59.9341772,31.3189873 59.7088608,31.7696203 59.4835443,32.4455696 C59.2582278,32.6708861 59.2582278,32.8962025 59.0329114,33.121519 C59.0329114,33.121519 58.8075949,35.8253165 58.8075949,41.0075949 C58.8075949,41.0075949 58.8075949,41.0075949 58.8075949,41.0075949 C58.8075949,44.1620253 59.0329114,48.6683544 59.2582278,53.6253165 C65.3417722,54.0759494 70.9746835,54.7518987 76.156962,55.6531646 L76.156962,34.0227848 L74.5797468,34.0227848 L78.4101266,25.4607595 L82.2405063,34.0227848 L80.6632911,34.0227848 L80.6632911,56.5544304 C86.2962025,57.6810127 91.0278481,59.0329114 95.3088608,60.3848101 L95.3088608,41.4582278 L93.7316456,41.4582278 L97.5620253,32.8962025 L101.392405,41.4582278 L99.8151899,41.4582278 L99.8151899,61.9620253 C104.772152,63.764557 108.602532,65.5670886 110.855696,66.6936709 C114.235443,39.4303797 108.151899,15.7721519 108.151899,15.7721519 C80.6632911,14.8708861 56.1037975,0 56.1037975,0 L56.1037975,16.8987342 Z" id="Path"></path><path d="M100.040506,66.6936709 L100.040506,88.0987342 L102.744304,88.0987342 L102.744304,88.0987342 L103.420253,88.0987342 L104.997468,88.0987342 L104.997468,88.0987342 L106.349367,88.0987342 C107.250633,85.1696203 108.151899,82.0151899 108.602532,79.0860759 L108.602532,79.0860759 C109.503797,76.156962 109.95443,73.678481 110.179747,71.8759494 C110.179747,71.8759494 110.179747,71.8759494 110.179747,71.8759494 C110.179747,71.8759494 110.179747,71.6506329 110.179747,71.6506329 C109.053165,70.5240506 105.448101,68.721519 100.040506,66.6936709 Z" id="Path"></path><path d="M80.8886076,60.835443 L80.8886076,87.8734177 L83.5924051,87.8734177 L83.5924051,87.8734177 L88.5493671,87.8734177 L88.5493671,87.8734177 L91.2531646,87.8734177 L95.7594937,87.8734177 L95.7594937,64.8911392 C91.478481,63.5392405 86.521519,62.1873418 80.8886076,60.835443 Z" id="Path"></path><path d="M76.3822785,87.8734177 L76.3822785,59.9341772 C71.2,59.0329114 65.7924051,58.356962 59.9341772,57.9063291 C59.9341772,57.9063291 59.9341772,57.9063291 59.9341772,57.9063291 C59.9341772,57.9063291 60.3848101,61.0607595 60.3848101,61.5113924 C61.2860759,68.4962025 63.0886076,79.3113924 65.1164557,87.8734177 L65.1164557,87.8734177 C65.1164557,87.8734177 65.1164557,87.8734177 65.1164557,87.8734177 L65.1164557,87.8734177 L74.3544304,87.8734177 L74.3544304,87.8734177 L74.3544304,87.8734177 L76.3822785,87.8734177 Z" id="Path"></path><path d="M47.0911392,87.8734177 C48.8936709,79.3113924 50.921519,68.4962025 51.8227848,61.5113924 C51.8227848,61.5113924 51.8227848,61.5113924 51.8227848,61.5113924 L51.8227848,61.5113924 C51.8227848,61.5113924 51.8227848,61.5113924 51.8227848,61.5113924 C51.8227848,61.0607595 52.2734177,58.1316456 52.2734177,57.9063291 C52.2734177,57.9063291 52.2734177,57.9063291 52.2734177,57.9063291 C46.1898734,58.356962 40.7822785,59.0329114 35.8253165,59.9341772 L35.8253165,87.8734177 L35.8253165,87.8734177 L37.8531646,87.8734177 L37.8531646,87.8734177 L47.0911392,87.8734177 C47.3164557,87.8734177 47.3164557,87.8734177 47.0911392,87.8734177 C47.3164557,87.8734177 47.3164557,87.8734177 47.0911392,87.8734177 L47.0911392,87.8734177 Z" id="Path"></path><path d="M11.9417722,61.7367089 L11.9417722,41.2329114 L10.364557,41.2329114 L14.1949367,32.6708861 L18.0253165,41.2329114 L16.4481013,41.2329114 L16.4481013,60.1594937 C20.7291139,58.8075949 25.6860759,57.4556962 31.0936709,56.3291139 L31.0936709,33.7974684 L29.5164557,33.7974684 L33.3468354,25.235443 L37.1772152,33.7974684 L35.6,33.7974684 L35.6,55.4278481 C40.7822785,54.5265823 46.4151899,53.8506329 52.4987342,53.4 C52.9493671,48.443038 52.9493671,43.7113924 52.9493671,40.7822785 C52.9493671,40.7822785 52.9493671,40.7822785 52.9493671,40.7822785 C52.9493671,35.6 52.7240506,32.8962025 52.7240506,32.8962025 C52.4987342,32.6708861 52.4987342,32.4455696 52.2734177,32.2202532 C52.0481013,31.7696203 51.8227848,31.0936709 51.8227848,30.4177215 C51.8227848,30.1924051 51.8227848,29.9670886 51.8227848,29.7417722 C51.8227848,29.7417722 51.8227848,29.7417722 51.8227848,29.7417722 L49.7949367,29.7417722 L49.7949367,29.5164557 L56.1037975,16.8987342 L56.1037975,16.8987342 L56.1037975,0 C56.1037975,0 31.5443038,14.6455696 3.83037975,15.5468354 C3.83037975,15.5468354 -2.0278481,39.2050633 0.901265823,66.4683544 C3.15443038,65.3417722 6.98481013,63.764557 11.9417722,61.7367089 Z" id="Path"></path><path d="M16.4481013,64.8911392 L16.4481013,87.8734177 L20.9544304,87.8734177 L23.6582278,87.8734177 L23.6582278,87.8734177 L28.6151899,87.8734177 L28.6151899,87.8734177 L28.6151899,87.8734177 L31.3189873,87.8734177 L31.3189873,87.8734177 L31.3189873,60.835443 C25.4607595,62.1873418 20.5037975,63.5392405 16.4481013,64.8911392 Z" id="Path"></path><path d="M1.35189873,71.4253165 C1.35189873,71.4253165 1.35189873,71.4253165 1.35189873,71.4253165 C1.35189873,71.4253165 1.35189873,71.6506329 1.35189873,71.6506329 C1.35189873,71.6506329 1.35189873,71.6506329 1.35189873,71.6506329 C1.35189873,71.6506329 1.35189873,71.6506329 1.35189873,71.6506329 C1.57721519,73.4531646 2.25316456,75.9316456 2.92911392,78.8607595 L2.92911392,78.8607595 C3.60506329,81.7898734 4.28101266,84.9443038 5.18227848,87.8734177 L6.53417722,87.8734177 L6.53417722,87.8734177 L8.78734177,87.8734177 L8.78734177,87.8734177 L11.4911392,87.8734177 L11.4911392,66.4683544 C6.53417722,68.721519 2.92911392,70.5240506 1.35189873,71.4253165 Z" id="Path"></path></g></g></g></g></g></g></g></svg>